<?xml version="1.0" encoding="us-ascii" standalone="no"?><svg xmlns="http://www.w3.org/2000/svg" xmlns:xlink="http://www.w3.org/1999/xlink" contentStyleType="text/css" height="316px" preserveAspectRatio="none" style="width:275px;height:316px;background:#FFFFFF;" version="1.1" viewBox="0 0 275 316" width="275px" zoomAndPan="magnify"><defs/><g><!--class Book--><g id="elem_Book"><rect codeLine="1" fill="#F1F1F1" height="129.4844" id="Book" rx="2.5" ry="2.5" style="stroke:#181818;stroke-width:0.5;" width="261" x="7" y="180"/><ellipse cx="114.75" cy="196" fill="#ADD1B2" rx="11" ry="11" style="stroke:#181818;stroke-width:1.0;"/><path d="M117.0938,191.6719 C116.1563,191.2344 115.5625,191.0938 114.6875,191.0938 C112.0625,191.0938 110.0625,193.1719 110.0625,195.8906 L110.0625,197.0156 C110.0625,199.5938 112.1719,201.4844 115.0625,201.4844 C116.2813,201.4844 117.4375,201.1875 118.1875,200.6406 C118.7656,200.2344 119.0938,199.7813 119.0938,199.3906 C119.0938,198.9375 118.7031,198.5469 118.2344,198.5469 C118.0156,198.5469 117.8125,198.625 117.625,198.8125 C117.1719,199.2969 117.1719,199.2969 116.9844,199.3906 C116.5625,199.6563 115.875,199.7813 115.1094,199.7813 C113.0625,199.7813 111.7656,198.6875 111.7656,196.9844 L111.7656,195.8906 C111.7656,194.1094 113.0156,192.7969 114.75,192.7969 C115.3281,192.7969 115.9375,192.9531 116.4063,193.2031 C116.8906,193.4844 117.0625,193.7031 117.1563,194.1094 C117.2188,194.5156 117.25,194.6406 117.3906,194.7656 C117.5313,194.9063 117.7656,195.0156 117.9844,195.0156 C118.25,195.0156 118.5156,194.875 118.6875,194.6563 C118.7969,194.5 118.8281,194.3125 118.8281,193.8906 L118.8281,192.4688 C118.8281,192.0313 118.8125,191.9063 118.7188,191.75 C118.5625,191.4844 118.2813,191.3438 117.9844,191.3438 C117.6875,191.3438 117.4844,191.4375 117.2656,191.75 L117.0938,191.6719 Z " fill="#000000"/><text fill="#000000" font-family="sans-serif" font-size="14" lengthAdjust="spacing" textLength="37" x="135.25" y="200.8467">Book</text><line style="stroke:#181818;stroke-width:0.5;" x1="8" x2="267" y1="212" y2="212"/><rect fill="none" height="6" style="stroke:#C82930;stroke-width:1.0;" width="6" x="15" y="222.6484"/><text fill="#000000" font-family="sans-serif" font-size="14" lengthAdjust="spacing" textLength="103" x="27" y="228.9951">m_title: string</text><rect fill="none" height="6" style="stroke:#C82930;stroke-width:1.0;" width="6" x="15" y="238.9453"/><text fill="#000000" font-family="sans-serif" font-size="14" lengthAdjust="spacing" textLength="119" x="27" y="245.292">m_author: string</text><line style="stroke:#181818;stroke-width:0.5;" x1="8" x2="267" y1="252.5938" y2="252.5938"/><ellipse cx="18" cy="266.2422" fill="#84BE84" rx="3" ry="3" style="stroke:#038048;stroke-width:1.0;"/><text fill="#000000" font-family="sans-serif" font-size="14" lengthAdjust="spacing" textLength="235" x="27" y="269.5889">Book(title: string, author: string)</text><ellipse cx="18" cy="282.5391" fill="#84BE84" rx="3" ry="3" style="stroke:#038048;stroke-width:1.0;"/><text fill="#000000" font-family="sans-serif" font-size="14" lengthAdjust="spacing" textLength="119" x="27" y="285.8857">getTitle(): string</text><ellipse cx="18" cy="298.8359" fill="#84BE84" rx="3" ry="3" style="stroke:#038048;stroke-width:1.0;"/><text fill="#000000" font-family="sans-serif" font-size="14" lengthAdjust="spacing" textLength="135" x="27" y="302.1826">getAuthor(): string</text></g><!--class LibrarySystem--><g id="elem_LibrarySystem"><rect codeLine="9" fill="#F1F1F1" height="113.1875" id="LibrarySystem" rx="2.5" ry="2.5" style="stroke:#181818;stroke-width:0.5;" width="221" x="27" y="7"/><ellipse cx="81.25" cy="23" fill="#ADD1B2" rx="11" ry="11" style="stroke:#181818;stroke-width:1.0;"/><path d="M83.5938,18.6719 C82.6563,18.2344 82.0625,18.0938 81.1875,18.0938 C78.5625,18.0938 76.5625,20.1719 76.5625,22.8906 L76.5625,24.0156 C76.5625,26.5938 78.6719,28.4844 81.5625,28.4844 C82.7813,28.4844 83.9375,28.1875 84.6875,27.6406 C85.2656,27.2344 85.5938,26.7813 85.5938,26.3906 C85.5938,25.9375 85.2031,25.5469 84.7344,25.5469 C84.5156,25.5469 84.3125,25.625 84.125,25.8125 C83.6719,26.2969 83.6719,26.2969 83.4844,26.3906 C83.0625,26.6563 82.375,26.7813 81.6094,26.7813 C79.5625,26.7813 78.2656,25.6875 78.2656,23.9844 L78.2656,22.8906 C78.2656,21.1094 79.5156,19.7969 81.25,19.7969 C81.8281,19.7969 82.4375,19.9531 82.9063,20.2031 C83.3906,20.4844 83.5625,20.7031 83.6563,21.1094 C83.7188,21.5156 83.75,21.6406 83.8906,21.7656 C84.0313,21.9063 84.2656,22.0156 84.4844,22.0156 C84.75,22.0156 85.0156,21.875 85.1875,21.6563 C85.2969,21.5 85.3281,21.3125 85.3281,20.8906 L85.3281,19.4688 C85.3281,19.0313 85.3125,18.9063 85.2188,18.75 C85.0625,18.4844 84.7813,18.3438 84.4844,18.3438 C84.1875,18.3438 83.9844,18.4375 83.7656,18.75 L83.5938,18.6719 Z " fill="#000000"/><text fill="#000000" font-family="sans-serif" font-size="14" lengthAdjust="spacing" textLength="104" x="101.75" y="27.8467">LibrarySystem</text><line style="stroke:#181818;stroke-width:0.5;" x1="28" x2="247" y1="39" y2="39"/><rect fill="none" height="6" style="stroke:#C82930;stroke-width:1.0;" width="6" x="35" y="49.6484"/><text fill="#000000" font-family="sans-serif" font-size="14" lengthAdjust="spacing" textLength="180" x="47" y="55.9951">m_books: vector&lt;Book&gt;</text><line style="stroke:#181818;stroke-width:0.5;" x1="28" x2="247" y1="63.2969" y2="63.2969"/><ellipse cx="38" cy="76.9453" fill="#84BE84" rx="3" ry="3" style="stroke:#038048;stroke-width:1.0;"/><text fill="#000000" font-family="sans-serif" font-size="14" lengthAdjust="spacing" textLength="114" x="47" y="80.292">LibrarySystem()</text><ellipse cx="38" cy="93.2422" fill="#84BE84" rx="3" ry="3" style="stroke:#038048;stroke-width:1.0;"/><text fill="#000000" font-family="sans-serif" font-size="14" lengthAdjust="spacing" textLength="195" x="47" y="96.5889">addBook(book: Book): void</text><ellipse cx="38" cy="109.5391" fill="#84BE84" rx="3" ry="3" style="stroke:#038048;stroke-width:1.0;"/><text fill="#000000" font-family="sans-serif" font-size="14" lengthAdjust="spacing" textLength="194" x="47" y="112.8857">getBooks(): vector&lt;Book&gt;</text></g><!--reverse link LibrarySystem to Book--><g id="link_LibrarySystem_Book"><path codeLine="16" d="M137.5,133.305 C137.5,148.573 137.5,164.69 137.5,179.745 " fill="none" id="LibrarySystem-backto-Book" style="stroke:#181818;stroke-width:1.0;"/><polygon fill="none" points="137.5,120.156,133.5,126.156,137.5,132.156,141.5,126.156,137.5,120.156" style="stroke:#181818;stroke-width:1.0;"/><text fill="#000000" font-family="sans-serif" font-size="13" lengthAdjust="spacing" textLength="23" x="113.0266" y="140.4394">0..*</text><text fill="#000000" font-family="sans-serif" font-size="13" lengthAdjust="spacing" textLength="23" x="113.2422" y="168.8898">0..*</text></g><!--SRC=[LO_12i8m44Jl-OgbfrHDyHn4qBCtlKkQX1fi3IHheOZ_RZPQQMvXUBDlediL8nozlyEB0O0OhkYmjn8Y1lVeVfbwuis7PRYc3Y_O3PHOdRdEueKeNXVr51yolSZVZEcyv-JQeC9qdYBQuJ-iJSOeORGQVTYHVvzF5JJ_MfKnUI1rPFvVqepUcLbEKIHtSIujADtLjcbM5NWXvYU17m00]--></g></svg>