<?xml version="1.0" encoding="us-ascii" standalone="no"?><svg xmlns="http://www.w3.org/2000/svg" xmlns:xlink="http://www.w3.org/1999/xlink" contentStyleType="text/css" height="349px" preserveAspectRatio="none" style="width:444px;height:349px;background:#FFFFFF;" version="1.1" viewBox="0 0 444 349" width="444px" zoomAndPan="magnify"><defs/><g><!--class Student--><g id="elem_Student"><rect codeLine="1" fill="#F1F1F1" height="129.4844" id="Student" rx="2.5" ry="2.5" style="stroke:#181818;stroke-width:0.5;" width="381" x="31.5" y="213"/><ellipse cx="188.75" cy="229" fill="#ADD1B2" rx="11" ry="11" style="stroke:#181818;stroke-width:1.0;"/><path d="M191.0938,224.6719 C190.1563,224.2344 189.5625,224.0938 188.6875,224.0938 C186.0625,224.0938 184.0625,226.1719 184.0625,228.8906 L184.0625,230.0156 C184.0625,232.5938 186.1719,234.4844 189.0625,234.4844 C190.2813,234.4844 191.4375,234.1875 192.1875,233.6406 C192.7656,233.2344 193.0938,232.7813 193.0938,232.3906 C193.0938,231.9375 192.7031,231.5469 192.2344,231.5469 C192.0156,231.5469 191.8125,231.625 191.625,231.8125 C191.1719,232.2969 191.1719,232.2969 190.9844,232.3906 C190.5625,232.6563 189.875,232.7813 189.1094,232.7813 C187.0625,232.7813 185.7656,231.6875 185.7656,229.9844 L185.7656,228.8906 C185.7656,227.1094 187.0156,225.7969 188.75,225.7969 C189.3281,225.7969 189.9375,225.9531 190.4063,226.2031 C190.8906,226.4844 191.0625,226.7031 191.1563,227.1094 C191.2188,227.5156 191.25,227.6406 191.3906,227.7656 C191.5313,227.9063 191.7656,228.0156 191.9844,228.0156 C192.25,228.0156 192.5156,227.875 192.6875,227.6563 C192.7969,227.5 192.8281,227.3125 192.8281,226.8906 L192.8281,225.4688 C192.8281,225.0313 192.8125,224.9063 192.7188,224.75 C192.5625,224.4844 192.2813,224.3438 191.9844,224.3438 C191.6875,224.3438 191.4844,224.4375 191.2656,224.75 L191.0938,224.6719 Z " fill="#000000"/><text fill="#000000" font-family="sans-serif" font-size="14" lengthAdjust="spacing" textLength="58" x="209.25" y="233.8467">Student</text><line style="stroke:#181818;stroke-width:0.5;" x1="32.5" x2="411.5" y1="245" y2="245"/><rect fill="none" height="6" style="stroke:#C82930;stroke-width:1.0;" width="6" x="39.5" y="255.6484"/><text fill="#000000" font-family="sans-serif" font-size="14" lengthAdjust="spacing" textLength="63" x="51.5" y="261.9951">m_id: int</text><rect fill="none" height="6" style="stroke:#C82930;stroke-width:1.0;" width="6" x="39.5" y="271.9453"/><text fill="#000000" font-family="sans-serif" font-size="14" lengthAdjust="spacing" textLength="145" x="51.5" y="278.292">m_name: std::string</text><line style="stroke:#181818;stroke-width:0.5;" x1="32.5" x2="411.5" y1="285.5938" y2="285.5938"/><ellipse cx="42.5" cy="299.2422" fill="#84BE84" rx="3" ry="3" style="stroke:#038048;stroke-width:1.0;"/><text fill="#000000" font-family="sans-serif" font-size="14" lengthAdjust="spacing" textLength="355" x="51.5" y="302.5889">Student(studentId: int, studentName: std::string)</text><ellipse cx="42.5" cy="315.5391" fill="#84BE84" rx="3" ry="3" style="stroke:#038048;stroke-width:1.0;"/><text fill="#000000" font-family="sans-serif" font-size="14" lengthAdjust="spacing" textLength="77" x="51.5" y="318.8857">getId(): int</text><ellipse cx="42.5" cy="331.8359" fill="#84BE84" rx="3" ry="3" style="stroke:#038048;stroke-width:1.0;"/><text fill="#000000" font-family="sans-serif" font-size="14" lengthAdjust="spacing" textLength="160" x="51.5" y="335.1826">getName(): std::string</text></g><!--class Course--><g id="elem_Course"><rect codeLine="8" fill="#F1F1F1" height="129.4844" id="Course" rx="2.5" ry="2.5" style="stroke:#181818;stroke-width:0.5;" width="430" x="7" y="7"/><ellipse cx="193.25" cy="23" fill="#ADD1B2" rx="11" ry="11" style="stroke:#181818;stroke-width:1.0;"/><path d="M195.5938,18.6719 C194.6563,18.2344 194.0625,18.0938 193.1875,18.0938 C190.5625,18.0938 188.5625,20.1719 188.5625,22.8906 L188.5625,24.0156 C188.5625,26.5938 190.6719,28.4844 193.5625,28.4844 C194.7813,28.4844 195.9375,28.1875 196.6875,27.6406 C197.2656,27.2344 197.5938,26.7813 197.5938,26.3906 C197.5938,25.9375 197.2031,25.5469 196.7344,25.5469 C196.5156,25.5469 196.3125,25.625 196.125,25.8125 C195.6719,26.2969 195.6719,26.2969 195.4844,26.3906 C195.0625,26.6563 194.375,26.7813 193.6094,26.7813 C191.5625,26.7813 190.2656,25.6875 190.2656,23.9844 L190.2656,22.8906 C190.2656,21.1094 191.5156,19.7969 193.25,19.7969 C193.8281,19.7969 194.4375,19.9531 194.9063,20.2031 C195.3906,20.4844 195.5625,20.7031 195.6563,21.1094 C195.7188,21.5156 195.75,21.6406 195.8906,21.7656 C196.0313,21.9063 196.2656,22.0156 196.4844,22.0156 C196.75,22.0156 197.0156,21.875 197.1875,21.6563 C197.2969,21.5 197.3281,21.3125 197.3281,20.8906 L197.3281,19.4688 C197.3281,19.0313 197.3125,18.9063 197.2188,18.75 C197.0625,18.4844 196.7813,18.3438 196.4844,18.3438 C196.1875,18.3438 195.9844,18.4375 195.7656,18.75 L195.5938,18.6719 Z " fill="#000000"/><text fill="#000000" font-family="sans-serif" font-size="14" lengthAdjust="spacing" textLength="49" x="213.75" y="27.8467">Course</text><line style="stroke:#181818;stroke-width:0.5;" x1="8" x2="436" y1="39" y2="39"/><rect fill="none" height="6" style="stroke:#C82930;stroke-width:1.0;" width="6" x="15" y="49.6484"/><text fill="#000000" font-family="sans-serif" font-size="14" lengthAdjust="spacing" textLength="145" x="27" y="55.9951">m_name: std::string</text><rect fill="none" height="6" style="stroke:#C82930;stroke-width:1.0;" width="6" x="15" y="65.9453"/><text fill="#000000" font-family="sans-serif" font-size="14" lengthAdjust="spacing" textLength="386" x="27" y="72.292">m_students: std::vector&lt;std::shared_ptr&lt;Student&gt;&gt;</text><line style="stroke:#181818;stroke-width:0.5;" x1="8" x2="436" y1="79.5938" y2="79.5938"/><ellipse cx="18" cy="93.2422" fill="#84BE84" rx="3" ry="3" style="stroke:#038048;stroke-width:1.0;"/><text fill="#000000" font-family="sans-serif" font-size="14" lengthAdjust="spacing" textLength="231" x="27" y="96.5889">Course(courseName: std::string)</text><ellipse cx="18" cy="109.5391" fill="#84BE84" rx="3" ry="3" style="stroke:#038048;stroke-width:1.0;"/><text fill="#000000" font-family="sans-serif" font-size="14" lengthAdjust="spacing" textLength="404" x="27" y="112.8857">enrollStudent(student: std::shared_ptr&lt;Student&gt;): void</text><ellipse cx="18" cy="125.8359" fill="#84BE84" rx="3" ry="3" style="stroke:#038048;stroke-width:1.0;"/><text fill="#000000" font-family="sans-serif" font-size="14" lengthAdjust="spacing" textLength="402" x="27" y="129.1826">getStudents(): std::vector&lt;std::shared_ptr&lt;Student&gt;&gt;</text></g><!--link Course to Student--><g id="link_Course_Student"><path codeLine="15" d="M222,136.208 C222,158.923 222,184.603 222,207.725 " fill="none" id="Course-to-Student" style="stroke:#181818;stroke-width:1.0;"/><polygon fill="#181818" points="222,212.925,226,203.925,222,207.925,218,203.925,222,212.925" style="stroke:#181818;stroke-width:1.0;"/><text fill="#000000" font-family="sans-serif" font-size="13" lengthAdjust="spacing" textLength="42" x="223" y="179.0669">enrolls</text><text fill="#000000" font-family="sans-serif" font-size="13" lengthAdjust="spacing" textLength="23" x="197.7422" y="202.0895">0..*</text></g><!--SRC=[XL7B3e8m4Bpp5HjEe48yDuIB9ozU_012sWP9e3NTmiNmxqAxF88QUzbqPwOpa_AcH8IxxOHK5bu1Z2U1jgW5WrhPvQxALZ90AnX3QsfLEUGuAoFqy-fb9w3xRI-BILV9aHl5gubRJVHfkVKP0kuoNdHdK6uYVeyq8MIEXFQIMsqoptoKHehYQKr6qVES_Br1nDtu6LmgevjcLtjcVZu-bkbrBTQA1E1Iys-w8Q3gIP93U4xJGxXy6ACy-0O0]--></g></svg>