<?xml version="1.0" encoding="us-ascii" standalone="no"?><svg xmlns="http://www.w3.org/2000/svg" xmlns:xlink="http://www.w3.org/1999/xlink" contentStyleType="text/css" height="284px" preserveAspectRatio="none" style="width:705px;height:284px;background:#FFFFFF;" version="1.1" viewBox="0 0 705 284" width="705px" zoomAndPan="magnify"><defs/><g><!--class Shape--><g id="elem_Shape"><rect codeLine="1" fill="#F1F1F1" height="80.5938" id="Shape" rx="2.5" ry="2.5" style="stroke:#181818;stroke-width:0.5;" width="192" x="234" y="7"/><ellipse cx="303.25" cy="23" fill="#A9DCDF" rx="11" ry="11" style="stroke:#181818;stroke-width:1.0;"/><path d="M305.3281,24.8125 L305.7188,25.7969 L305.3281,25.7969 C304.875,25.7969 304.7656,25.8125 304.6094,25.9219 C304.3594,26.0781 304.2031,26.3594 304.2031,26.6563 C304.2031,26.9219 304.3438,27.1719 304.5625,27.3281 C304.7031,27.4531 304.9063,27.5 305.3281,27.5 L307.6875,27.5 C308.0469,27.5 308.2656,27.4688 308.4063,27.375 C308.6563,27.2344 308.8125,26.9375 308.8125,26.6563 C308.8125,26.375 308.6719,26.125 308.4531,25.9688 C308.2813,25.8281 308.125,25.7969 307.6563,25.7969 L304.2656,17.5938 L300.5938,17.5938 C300.1406,17.5938 300.0156,17.6094 299.8594,17.7031 C299.6094,17.875 299.4531,18.1563 299.4531,18.4375 C299.4531,18.7188 299.5938,18.9688 299.8125,19.1406 C299.9844,19.25 300.1563,19.2813 300.5938,19.2813 L301.6719,19.2813 L299.0313,25.7969 C298.6094,25.7969 298.4531,25.8125 298.2969,25.9219 C298.0469,26.0781 297.8906,26.3594 297.8906,26.6563 C297.8906,27.2188 298.2656,27.5 299.0156,27.5 L301.2813,27.5 C301.6406,27.5 301.8594,27.4688 301.9844,27.375 C302.25,27.2344 302.3906,26.9375 302.3906,26.6563 C302.3906,26.375 302.2656,26.125 302.0469,25.9531 C301.875,25.8281 301.7344,25.7969 301.2813,25.7969 L300.8906,25.7969 L301.2813,24.8125 L305.3281,24.8125 Z M304.625,23.1094 L301.9531,23.1094 L303.2969,19.8438 L304.625,23.1094 Z " fill="#000000"/><text fill="#000000" font-family="sans-serif" font-size="14" font-style="italic" lengthAdjust="spacing" textLength="45" x="323.75" y="27.8467">Shape</text><line style="stroke:#181818;stroke-width:0.5;" x1="235" x2="425" y1="39" y2="39"/><line style="stroke:#181818;stroke-width:0.5;" x1="235" x2="425" y1="47" y2="47"/><ellipse cx="245" cy="60.6484" fill="#84BE84" rx="3" ry="3" style="stroke:#038048;stroke-width:1.0;"/><text fill="#000000" font-family="sans-serif" font-size="14" lengthAdjust="spacing" textLength="126" x="254" y="63.9951">getArea(): double</text><ellipse cx="245" cy="76.9453" fill="#84BE84" rx="3" ry="3" style="stroke:#038048;stroke-width:1.0;"/><text fill="#000000" font-family="sans-serif" font-size="14" lengthAdjust="spacing" textLength="166" x="254" y="80.292">getPerimeter(): double</text></g><!--class Circle--><g id="elem_Circle"><rect codeLine="6" fill="#F1F1F1" height="113.1875" id="Circle" rx="2.5" ry="2.5" style="stroke:#181818;stroke-width:0.5;" width="192" x="7" y="156"/><ellipse cx="78.25" cy="172" fill="#ADD1B2" rx="11" ry="11" style="stroke:#181818;stroke-width:1.0;"/><path d="M80.5938,167.6719 C79.6563,167.2344 79.0625,167.0938 78.1875,167.0938 C75.5625,167.0938 73.5625,169.1719 73.5625,171.8906 L73.5625,173.0156 C73.5625,175.5938 75.6719,177.4844 78.5625,177.4844 C79.7813,177.4844 80.9375,177.1875 81.6875,176.6406 C82.2656,176.2344 82.5938,175.7813 82.5938,175.3906 C82.5938,174.9375 82.2031,174.5469 81.7344,174.5469 C81.5156,174.5469 81.3125,174.625 81.125,174.8125 C80.6719,175.2969 80.6719,175.2969 80.4844,175.3906 C80.0625,175.6563 79.375,175.7813 78.6094,175.7813 C76.5625,175.7813 75.2656,174.6875 75.2656,172.9844 L75.2656,171.8906 C75.2656,170.1094 76.5156,168.7969 78.25,168.7969 C78.8281,168.7969 79.4375,168.9531 79.9063,169.2031 C80.3906,169.4844 80.5625,169.7031 80.6563,170.1094 C80.7188,170.5156 80.75,170.6406 80.8906,170.7656 C81.0313,170.9063 81.2656,171.0156 81.4844,171.0156 C81.75,171.0156 82.0156,170.875 82.1875,170.6563 C82.2969,170.5 82.3281,170.3125 82.3281,169.8906 L82.3281,168.4688 C82.3281,168.0313 82.3125,167.9063 82.2188,167.75 C82.0625,167.4844 81.7813,167.3438 81.4844,167.3438 C81.1875,167.3438 80.9844,167.4375 80.7656,167.75 L80.5938,167.6719 Z " fill="#000000"/><text fill="#000000" font-family="sans-serif" font-size="14" lengthAdjust="spacing" textLength="41" x="98.75" y="176.8467">Circle</text><line style="stroke:#181818;stroke-width:0.5;" x1="8" x2="198" y1="188" y2="188"/><rect fill="none" height="6" style="stroke:#C82930;stroke-width:1.0;" width="6" x="15" y="198.6484"/><text fill="#000000" font-family="sans-serif" font-size="14" lengthAdjust="spacing" textLength="100" x="27" y="204.9951">radius: double</text><line style="stroke:#181818;stroke-width:0.5;" x1="8" x2="198" y1="212.2969" y2="212.2969"/><ellipse cx="18" cy="225.9453" fill="#84BE84" rx="3" ry="3" style="stroke:#038048;stroke-width:1.0;"/><text fill="#000000" font-family="sans-serif" font-size="14" lengthAdjust="spacing" textLength="115" x="27" y="229.292">Circle(r: double)</text><ellipse cx="18" cy="242.2422" fill="#84BE84" rx="3" ry="3" style="stroke:#038048;stroke-width:1.0;"/><text fill="#000000" font-family="sans-serif" font-size="14" lengthAdjust="spacing" textLength="126" x="27" y="245.5889">getArea(): double</text><ellipse cx="18" cy="258.5391" fill="#84BE84" rx="3" ry="3" style="stroke:#038048;stroke-width:1.0;"/><text fill="#000000" font-family="sans-serif" font-size="14" lengthAdjust="spacing" textLength="166" x="27" y="261.8857">getPerimeter(): double</text></g><!--class Square--><g id="elem_Square"><rect codeLine="13" fill="#F1F1F1" height="113.1875" id="Square" rx="2.5" ry="2.5" style="stroke:#181818;stroke-width:0.5;" width="192" x="234" y="156"/><ellipse cx="301.25" cy="172" fill="#ADD1B2" rx="11" ry="11" style="stroke:#181818;stroke-width:1.0;"/><path d="M303.5938,167.6719 C302.6563,167.2344 302.0625,167.0938 301.1875,167.0938 C298.5625,167.0938 296.5625,169.1719 296.5625,171.8906 L296.5625,173.0156 C296.5625,175.5938 298.6719,177.4844 301.5625,177.4844 C302.7813,177.4844 303.9375,177.1875 304.6875,176.6406 C305.2656,176.2344 305.5938,175.7813 305.5938,175.3906 C305.5938,174.9375 305.2031,174.5469 304.7344,174.5469 C304.5156,174.5469 304.3125,174.625 304.125,174.8125 C303.6719,175.2969 303.6719,175.2969 303.4844,175.3906 C303.0625,175.6563 302.375,175.7813 301.6094,175.7813 C299.5625,175.7813 298.2656,174.6875 298.2656,172.9844 L298.2656,171.8906 C298.2656,170.1094 299.5156,168.7969 301.25,168.7969 C301.8281,168.7969 302.4375,168.9531 302.9063,169.2031 C303.3906,169.4844 303.5625,169.7031 303.6563,170.1094 C303.7188,170.5156 303.75,170.6406 303.8906,170.7656 C304.0313,170.9063 304.2656,171.0156 304.4844,171.0156 C304.75,171.0156 305.0156,170.875 305.1875,170.6563 C305.2969,170.5 305.3281,170.3125 305.3281,169.8906 L305.3281,168.4688 C305.3281,168.0313 305.3125,167.9063 305.2188,167.75 C305.0625,167.4844 304.7813,167.3438 304.4844,167.3438 C304.1875,167.3438 303.9844,167.4375 303.7656,167.75 L303.5938,167.6719 Z " fill="#000000"/><text fill="#000000" font-family="sans-serif" font-size="14" lengthAdjust="spacing" textLength="49" x="321.75" y="176.8467">Square</text><line style="stroke:#181818;stroke-width:0.5;" x1="235" x2="425" y1="188" y2="188"/><rect fill="none" height="6" style="stroke:#C82930;stroke-width:1.0;" width="6" x="242" y="198.6484"/><text fill="#000000" font-family="sans-serif" font-size="14" lengthAdjust="spacing" textLength="87" x="254" y="204.9951">side: double</text><line style="stroke:#181818;stroke-width:0.5;" x1="235" x2="425" y1="212.2969" y2="212.2969"/><ellipse cx="245" cy="225.9453" fill="#84BE84" rx="3" ry="3" style="stroke:#038048;stroke-width:1.0;"/><text fill="#000000" font-family="sans-serif" font-size="14" lengthAdjust="spacing" textLength="124" x="254" y="229.292">Square(s: double)</text><ellipse cx="245" cy="242.2422" fill="#84BE84" rx="3" ry="3" style="stroke:#038048;stroke-width:1.0;"/><text fill="#000000" font-family="sans-serif" font-size="14" lengthAdjust="spacing" textLength="126" x="254" y="245.5889">getArea(): double</text><ellipse cx="245" cy="258.5391" fill="#84BE84" rx="3" ry="3" style="stroke:#038048;stroke-width:1.0;"/><text fill="#000000" font-family="sans-serif" font-size="14" lengthAdjust="spacing" textLength="166" x="254" y="261.8857">getPerimeter(): double</text></g><!--class Triangle--><g id="elem_Triangle"><rect codeLine="20" fill="#F1F1F1" height="129.4844" id="Triangle" rx="2.5" ry="2.5" style="stroke:#181818;stroke-width:0.5;" width="237" x="461.5" y="148"/><ellipse cx="546.75" cy="164" fill="#ADD1B2" rx="11" ry="11" style="stroke:#181818;stroke-width:1.0;"/><path d="M549.0938,159.6719 C548.1563,159.2344 547.5625,159.0938 546.6875,159.0938 C544.0625,159.0938 542.0625,161.1719 542.0625,163.8906 L542.0625,165.0156 C542.0625,167.5938 544.1719,169.4844 547.0625,169.4844 C548.2813,169.4844 549.4375,169.1875 550.1875,168.6406 C550.7656,168.2344 551.0938,167.7813 551.0938,167.3906 C551.0938,166.9375 550.7031,166.5469 550.2344,166.5469 C550.0156,166.5469 549.8125,166.625 549.625,166.8125 C549.1719,167.2969 549.1719,167.2969 548.9844,167.3906 C548.5625,167.6563 547.875,167.7813 547.1094,167.7813 C545.0625,167.7813 543.7656,166.6875 543.7656,164.9844 L543.7656,163.8906 C543.7656,162.1094 545.0156,160.7969 546.75,160.7969 C547.3281,160.7969 547.9375,160.9531 548.4063,161.2031 C548.8906,161.4844 549.0625,161.7031 549.1563,162.1094 C549.2188,162.5156 549.25,162.6406 549.3906,162.7656 C549.5313,162.9063 549.7656,163.0156 549.9844,163.0156 C550.25,163.0156 550.5156,162.875 550.6875,162.6563 C550.7969,162.5 550.8281,162.3125 550.8281,161.8906 L550.8281,160.4688 C550.8281,160.0313 550.8125,159.9063 550.7188,159.75 C550.5625,159.4844 550.2813,159.3438 549.9844,159.3438 C549.6875,159.3438 549.4844,159.4375 549.2656,159.75 L549.0938,159.6719 Z " fill="#000000"/><text fill="#000000" font-family="sans-serif" font-size="14" lengthAdjust="spacing" textLength="58" x="567.25" y="168.8467">Triangle</text><line style="stroke:#181818;stroke-width:0.5;" x1="462.5" x2="697.5" y1="180" y2="180"/><rect fill="none" height="6" style="stroke:#C82930;stroke-width:1.0;" width="6" x="469.5" y="190.6484"/><text fill="#000000" font-family="sans-serif" font-size="14" lengthAdjust="spacing" textLength="92" x="481.5" y="196.9951">base: double</text><rect fill="none" height="6" style="stroke:#C82930;stroke-width:1.0;" width="6" x="469.5" y="206.9453"/><text fill="#000000" font-family="sans-serif" font-size="14" lengthAdjust="spacing" textLength="105" x="481.5" y="213.292">height: double</text><line style="stroke:#181818;stroke-width:0.5;" x1="462.5" x2="697.5" y1="220.5938" y2="220.5938"/><ellipse cx="472.5" cy="234.2422" fill="#84BE84" rx="3" ry="3" style="stroke:#038048;stroke-width:1.0;"/><text fill="#000000" font-family="sans-serif" font-size="14" lengthAdjust="spacing" textLength="211" x="481.5" y="237.5889">Triangle(b: double, h: double)</text><ellipse cx="472.5" cy="250.5391" fill="#84BE84" rx="3" ry="3" style="stroke:#038048;stroke-width:1.0;"/><text fill="#000000" font-family="sans-serif" font-size="14" lengthAdjust="spacing" textLength="126" x="481.5" y="253.8857">getArea(): double</text><ellipse cx="472.5" cy="266.8359" fill="#84BE84" rx="3" ry="3" style="stroke:#038048;stroke-width:1.0;"/><text fill="#000000" font-family="sans-serif" font-size="14" lengthAdjust="spacing" textLength="166" x="481.5" y="270.1826">getPerimeter(): double</text></g><!--reverse link Shape to Circle--><g id="link_Shape_Circle"><path codeLine="28" d="M258.183,100.069 C233.429,117.844 205.603,137.825 180.421,155.907 " fill="none" id="Shape-backto-Circle" style="stroke:#181818;stroke-width:1.0;"/><polygon fill="none" points="254.431,94.145,274.76,88.166,262.597,105.517,254.431,94.145" style="stroke:#181818;stroke-width:1.0;"/></g><!--reverse link Shape to Square--><g id="link_Shape_Square"><path codeLine="29" d="M330,108.517 C330,123.96 330,140.512 330,155.73 " fill="none" id="Shape-backto-Square" style="stroke:#181818;stroke-width:1.0;"/><polygon fill="none" points="323,108.374,330,88.374,337,108.374,323,108.374" style="stroke:#181818;stroke-width:1.0;"/></g><!--reverse link Shape to Triangle--><g id="link_Shape_Triangle"><path codeLine="30" d="M407.861,99.266 C431.406,114.617 457.566,131.673 482.237,147.759 " fill="none" id="Shape-backto-Triangle" style="stroke:#181818;stroke-width:1.0;"/><polygon fill="none" points="403.768,104.953,390.837,88.166,411.414,93.225,403.768,104.953" style="stroke:#181818;stroke-width:1.0;"/></g><!--SRC=[fP4z3i8m34RtdC9ZAiW540lY0aZb0avgDP7AdvrCmDqPt4YUwVg-V7vnWb4gOwgG5XI1CUEJuEq0TZFL4nFwuG3JeyM5LdWXBZUgn2RvEgVzS-6qw830E9Kcjgsfvyw6lptZgo6l7YaJsQvcNhPRhbpmFlTz8ehrX4nbpjNEw-Tzx7GFUSirz3kEdn3MbxL4zxIa-ty0]--></g></svg>