<?xml version="1.0" encoding="us-ascii" standalone="no"?><svg xmlns="http://www.w3.org/2000/svg" xmlns:xlink="http://www.w3.org/1999/xlink" contentStyleType="text/css" height="393px" preserveAspectRatio="none" style="width:441px;height:393px;background:#FFFFFF;" version="1.1" viewBox="0 0 441 393" width="441px" zoomAndPan="magnify"><defs/><g><!--class Student--><g id="elem_Student"><rect codeLine="3" fill="#F1F1F1" height="129.4844" id="Student" rx="2.5" ry="2.5" style="stroke:#181818;stroke-width:0.5;" width="378" x="31.5" y="7"/><ellipse cx="187.25" cy="23" fill="#ADD1B2" rx="11" ry="11" style="stroke:#181818;stroke-width:1.0;"/><path d="M189.5938,18.6719 C188.6563,18.2344 188.0625,18.0938 187.1875,18.0938 C184.5625,18.0938 182.5625,20.1719 182.5625,22.8906 L182.5625,24.0156 C182.5625,26.5938 184.6719,28.4844 187.5625,28.4844 C188.7813,28.4844 189.9375,28.1875 190.6875,27.6406 C191.2656,27.2344 191.5938,26.7813 191.5938,26.3906 C191.5938,25.9375 191.2031,25.5469 190.7344,25.5469 C190.5156,25.5469 190.3125,25.625 190.125,25.8125 C189.6719,26.2969 189.6719,26.2969 189.4844,26.3906 C189.0625,26.6563 188.375,26.7813 187.6094,26.7813 C185.5625,26.7813 184.2656,25.6875 184.2656,23.9844 L184.2656,22.8906 C184.2656,21.1094 185.5156,19.7969 187.25,19.7969 C187.8281,19.7969 188.4375,19.9531 188.9063,20.2031 C189.3906,20.4844 189.5625,20.7031 189.6563,21.1094 C189.7188,21.5156 189.75,21.6406 189.8906,21.7656 C190.0313,21.9063 190.2656,22.0156 190.4844,22.0156 C190.75,22.0156 191.0156,21.875 191.1875,21.6563 C191.2969,21.5 191.3281,21.3125 191.3281,20.8906 L191.3281,19.4688 C191.3281,19.0313 191.3125,18.9063 191.2188,18.75 C191.0625,18.4844 190.7813,18.3438 190.4844,18.3438 C190.1875,18.3438 189.9844,18.4375 189.7656,18.75 L189.5938,18.6719 Z " fill="#000000"/><text fill="#000000" font-family="sans-serif" font-size="14" lengthAdjust="spacing" textLength="58" x="207.75" y="27.8467">Student</text><line style="stroke:#181818;stroke-width:0.5;" x1="32.5" x2="408.5" y1="39" y2="39"/><text fill="#000000" font-family="sans-serif" font-size="14" lengthAdjust="spacing" textLength="69" x="37.5" y="55.9951">-m_id: int</text><text fill="#000000" font-family="sans-serif" font-size="14" lengthAdjust="spacing" textLength="151" x="37.5" y="72.292">-m_name: std::string</text><line style="stroke:#181818;stroke-width:0.5;" x1="32.5" x2="408.5" y1="79.5938" y2="79.5938"/><text fill="#000000" font-family="sans-serif" font-size="14" lengthAdjust="spacing" textLength="366" x="37.5" y="96.5889">+Student(studentId: int, studentName: std::string)</text><text fill="#000000" font-family="sans-serif" font-size="14" lengthAdjust="spacing" textLength="88" x="37.5" y="112.8857">+getId(): int</text><text fill="#000000" font-family="sans-serif" font-size="14" lengthAdjust="spacing" textLength="171" x="37.5" y="129.1826">+getName(): std::string</text></g><!--class Course--><g id="elem_Course"><rect codeLine="12" fill="#F1F1F1" height="129.4844" id="Course" rx="2.5" ry="2.5" style="stroke:#181818;stroke-width:0.5;" width="427" x="7" y="257"/><ellipse cx="191.75" cy="273" fill="#ADD1B2" rx="11" ry="11" style="stroke:#181818;stroke-width:1.0;"/><path d="M194.0938,268.6719 C193.1563,268.2344 192.5625,268.0938 191.6875,268.0938 C189.0625,268.0938 187.0625,270.1719 187.0625,272.8906 L187.0625,274.0156 C187.0625,276.5938 189.1719,278.4844 192.0625,278.4844 C193.2813,278.4844 194.4375,278.1875 195.1875,277.6406 C195.7656,277.2344 196.0938,276.7813 196.0938,276.3906 C196.0938,275.9375 195.7031,275.5469 195.2344,275.5469 C195.0156,275.5469 194.8125,275.625 194.625,275.8125 C194.1719,276.2969 194.1719,276.2969 193.9844,276.3906 C193.5625,276.6563 192.875,276.7813 192.1094,276.7813 C190.0625,276.7813 188.7656,275.6875 188.7656,273.9844 L188.7656,272.8906 C188.7656,271.1094 190.0156,269.7969 191.75,269.7969 C192.3281,269.7969 192.9375,269.9531 193.4063,270.2031 C193.8906,270.4844 194.0625,270.7031 194.1563,271.1094 C194.2188,271.5156 194.25,271.6406 194.3906,271.7656 C194.5313,271.9063 194.7656,272.0156 194.9844,272.0156 C195.25,272.0156 195.5156,271.875 195.6875,271.6563 C195.7969,271.5 195.8281,271.3125 195.8281,270.8906 L195.8281,269.4688 C195.8281,269.0313 195.8125,268.9063 195.7188,268.75 C195.5625,268.4844 195.2813,268.3438 194.9844,268.3438 C194.6875,268.3438 194.4844,268.4375 194.2656,268.75 L194.0938,268.6719 Z " fill="#000000"/><text fill="#000000" font-family="sans-serif" font-size="14" lengthAdjust="spacing" textLength="49" x="212.25" y="277.8467">Course</text><line style="stroke:#181818;stroke-width:0.5;" x1="8" x2="433" y1="289" y2="289"/><text fill="#000000" font-family="sans-serif" font-size="14" lengthAdjust="spacing" textLength="151" x="13" y="305.9951">-m_name: std::string</text><text fill="#000000" font-family="sans-serif" font-size="14" lengthAdjust="spacing" textLength="392" x="13" y="322.292">-m_students: std::vector&lt;std::shared_ptr&lt;Student&gt;&gt;</text><line style="stroke:#181818;stroke-width:0.5;" x1="8" x2="433" y1="329.5938" y2="329.5938"/><text fill="#000000" font-family="sans-serif" font-size="14" lengthAdjust="spacing" textLength="242" x="13" y="346.5889">+Course(courseName: std::string)</text><text fill="#000000" font-family="sans-serif" font-size="14" lengthAdjust="spacing" textLength="415" x="13" y="362.8857">+enrollStudent(student: std::shared_ptr&lt;Student&gt;): void</text><text fill="#000000" font-family="sans-serif" font-size="14" lengthAdjust="spacing" textLength="413" x="13" y="379.1826">+getStudents(): std::vector&lt;std::shared_ptr&lt;Student&gt;&gt;</text></g><!--link Student to Course--><g id="link_Student_Course"><path codeLine="21" d="M220.5,136.044 C220.5,173.071 220.5,219.619 220.5,256.69 " fill="none" id="Student-Course" style="stroke:#181818;stroke-width:1.0;"/><text fill="#000000" font-family="sans-serif" font-size="13" lengthAdjust="spacing" textLength="23" x="196.1703" y="156.4207">0..*</text><text fill="#000000" font-family="sans-serif" font-size="13" lengthAdjust="spacing" textLength="23" x="196.2422" y="245.8288">0..*</text></g><!--SRC=[XL713e8m3Btp5OqdK36SYI4ndhnuyGFCP8qkmaRMua7ZlmjiGoCndhhslTU-bz5LwKPOKKDP2Q8DirMdbd5N6drGTuGiYWO43jnAr0oF201Ig8zAvg0qXrQB6dCWbdbEtH9zZdfa4NGnkRfpgYNuVlyjIvpiZ1qrJiOJmwGdzxFFAyzWS6jQI_ZsDpNa0N-PF7Z3aerTE-95M9J7XktQ-ouAdyEjZykX_7ADsfgg-eeSYDFTNPIRKNBCv-SqPlphhKiVFcQMhLRpMPgcxk4Dlm00]--></g></svg>