<?xml version="1.0" encoding="us-ascii" standalone="no"?><svg xmlns="http://www.w3.org/2000/svg" xmlns:xlink="http://www.w3.org/1999/xlink" contentStyleType="text/css" height="166px" preserveAspectRatio="none" style="width:248px;height:166px;background:#FFFFFF;" version="1.1" viewBox="0 0 248 166" width="248px" zoomAndPan="magnify"><defs/><g><!--class Person--><g id="elem_Person"><rect codeLine="2" fill="#F1F1F1" height="145.7813" id="Person" rx="2.5" ry="2.5" style="stroke:#181818;stroke-width:0.5;" width="227" x="7" y="7"/><ellipse cx="91.75" cy="23" fill="#ADD1B2" rx="11" ry="11" style="stroke:#181818;stroke-width:1.0;"/><path d="M94.0938,18.6719 C93.1563,18.2344 92.5625,18.0938 91.6875,18.0938 C89.0625,18.0938 87.0625,20.1719 87.0625,22.8906 L87.0625,24.0156 C87.0625,26.5938 89.1719,28.4844 92.0625,28.4844 C93.2813,28.4844 94.4375,28.1875 95.1875,27.6406 C95.7656,27.2344 96.0938,26.7813 96.0938,26.3906 C96.0938,25.9375 95.7031,25.5469 95.2344,25.5469 C95.0156,25.5469 94.8125,25.625 94.625,25.8125 C94.1719,26.2969 94.1719,26.2969 93.9844,26.3906 C93.5625,26.6563 92.875,26.7813 92.1094,26.7813 C90.0625,26.7813 88.7656,25.6875 88.7656,23.9844 L88.7656,22.8906 C88.7656,21.1094 90.0156,19.7969 91.75,19.7969 C92.3281,19.7969 92.9375,19.9531 93.4063,20.2031 C93.8906,20.4844 94.0625,20.7031 94.1563,21.1094 C94.2188,21.5156 94.25,21.6406 94.3906,21.7656 C94.5313,21.9063 94.7656,22.0156 94.9844,22.0156 C95.25,22.0156 95.5156,21.875 95.6875,21.6563 C95.7969,21.5 95.8281,21.3125 95.8281,20.8906 L95.8281,19.4688 C95.8281,19.0313 95.8125,18.9063 95.7188,18.75 C95.5625,18.4844 95.2813,18.3438 94.9844,18.3438 C94.6875,18.3438 94.4844,18.4375 94.2656,18.75 L94.0938,18.6719 Z " fill="#000000"/><text fill="#000000" font-family="sans-serif" font-size="14" lengthAdjust="spacing" textLength="49" x="112.25" y="27.8467">Person</text><line style="stroke:#181818;stroke-width:0.5;" x1="8" x2="233" y1="39" y2="39"/><text fill="#000000" font-family="sans-serif" font-size="14" lengthAdjust="spacing" textLength="97" x="13" y="55.9951">-name: string</text><text fill="#000000" font-family="sans-serif" font-size="14" lengthAdjust="spacing" textLength="61" x="13" y="72.292">-age: int</text><line style="stroke:#181818;stroke-width:0.5;" x1="8" x2="233" y1="79.5938" y2="79.5938"/><text fill="#000000" font-family="sans-serif" font-size="14" lengthAdjust="spacing" textLength="215" x="13" y="96.5889">+setName(name: string): void</text><text fill="#000000" font-family="sans-serif" font-size="14" lengthAdjust="spacing" textLength="138" x="13" y="112.8857">+getName(): string</text><text fill="#000000" font-family="sans-serif" font-size="14" lengthAdjust="spacing" textLength="166" x="13" y="129.1826">+setAge(age: int): void</text><text fill="#000000" font-family="sans-serif" font-size="14" lengthAdjust="spacing" textLength="103" x="13" y="145.4795">+getAge(): int</text></g><!--SRC=[AyxEp2j8B4hCLKZEIImkTYmfASfCAYr9zKpEpmlEh4fLCE02IoW4f1OLv-SfL7Cf086kGbvYRggLGZ5GTLuwL2Wn7IYIcLS2vceh5AUM-04LQI2hrBHIAClFJ86gI8Ugq4Gn2ApJCJrL0sOUXYQGf2R4gbe0]--></g></svg>