<?xml version="1.0" encoding="UTF-8" standalone="no"?><svg xmlns="http://www.w3.org/2000/svg" xmlns:xlink="http://www.w3.org/1999/xlink" contentStyleType="text/css" height="452px" preserveAspectRatio="none" style="width:329px;height:452px;background:#FFFFFF;" version="1.1" viewBox="0 0 329 452" width="329px" zoomAndPan="magnify"><defs/><g><rect fill="none" height="27.6094" id="_title" style="stroke:none;stroke-width:1.0;" width="188" x="69.25" y="15"/><text fill="#000000" font-family="sans-serif" font-size="14" font-weight="bold" lengthAdjust="spacing" textLength="178" x="74.25" y="34.5332">Online Shopping Process</text><ellipse cx="73.5" cy="58.6094" fill="#222222" rx="10" ry="10" style="stroke:#222222;stroke-width:1.0;"/><rect fill="#F1F1F1" height="35.0938" rx="12.5" ry="12.5" style="stroke:#181818;stroke-width:0.5;" width="109" x="19" y="88.6094"/><text fill="#000000" font-family="sans-serif" font-size="12" lengthAdjust="spacing" textLength="89" x="29" y="111.0664">Customer Login</text><rect fill="#F1F1F1" height="35.0938" rx="12.5" ry="12.5" style="stroke:#181818;stroke-width:0.5;" width="98" x="24.5" y="143.7031"/><text fill="#000000" font-family="sans-serif" font-size="12" lengthAdjust="spacing" textLength="78" x="34.5" y="166.1602">View Products</text><rect fill="#F1F1F1" height="35.0938" rx="12.5" ry="12.5" style="stroke:#181818;stroke-width:0.5;" width="80" x="33.5" y="198.7969"/><text fill="#000000" font-family="sans-serif" font-size="12" lengthAdjust="spacing" textLength="60" x="43.5" y="221.2539">Add to Cart</text><path d="M129.5,258.2617 L129.5,267.4375 L109.5,271.4375 L129.5,275.4375 L129.5,284.6133 A0,0 0 0 0 129.5,284.6133 L317.5,284.6133 A0,0 0 0 0 317.5,284.6133 L317.5,268.2617 L307.5,258.2617 L129.5,258.2617 A0,0 0 0 0 129.5,258.2617 " fill="#FEFFDD" style="stroke:#181818;stroke-width:0.5;"/><path d="M307.5,258.2617 L307.5,268.2617 L317.5,268.2617 L307.5,258.2617 " fill="#FEFFDD" style="stroke:#181818;stroke-width:0.5;"/><text fill="#000000" font-family="sans-serif" font-size="13" lengthAdjust="spacing" textLength="167" x="135.5" y="276.7568">This is an example of a note.</text><rect fill="#F1F1F1" height="35.0938" rx="12.5" ry="12.5" style="stroke:#181818;stroke-width:0.5;" width="72" x="37.5" y="253.8906"/><text fill="#000000" font-family="sans-serif" font-size="12" lengthAdjust="spacing" textLength="52" x="47.5" y="276.3477">Checkout</text><rect fill="#F1F1F1" height="35.0938" rx="12.5" ry="12.5" style="stroke:#181818;stroke-width:0.5;" width="68" x="39.5" y="308.9844"/><text fill="#000000" font-family="sans-serif" font-size="12" lengthAdjust="spacing" textLength="48" x="49.5" y="331.4414">Payment</text><rect fill="#F1F1F1" height="35.0938" rx="12.5" ry="12.5" style="stroke:#181818;stroke-width:0.5;" width="125" x="11" y="364.0781"/><text fill="#000000" font-family="sans-serif" font-size="12" lengthAdjust="spacing" textLength="105" x="21" y="386.5352">Order Confirmation</text><ellipse cx="73.5" cy="430.1719" fill="none" rx="11" ry="11" style="stroke:#222222;stroke-width:1.0;"/><ellipse cx="73.5" cy="430.1719" fill="#222222" rx="6" ry="6" style="stroke:#111111;stroke-width:1.0;"/><line style="stroke:#181818;stroke-width:1.0;" x1="73.5" x2="73.5" y1="68.6094" y2="88.6094"/><polygon fill="#181818" points="69.5,78.6094,73.5,88.6094,77.5,78.6094,73.5,82.6094" style="stroke:#181818;stroke-width:1.0;"/><line style="stroke:#181818;stroke-width:1.0;" x1="73.5" x2="73.5" y1="123.7031" y2="143.7031"/><polygon fill="#181818" points="69.5,133.7031,73.5,143.7031,77.5,133.7031,73.5,137.7031" style="stroke:#181818;stroke-width:1.0;"/><line style="stroke:#181818;stroke-width:1.0;" x1="73.5" x2="73.5" y1="178.7969" y2="198.7969"/><polygon fill="#181818" points="69.5,188.7969,73.5,198.7969,77.5,188.7969,73.5,192.7969" style="stroke:#181818;stroke-width:1.0;"/><line style="stroke:#181818;stroke-width:1.0;" x1="73.5" x2="73.5" y1="233.8906" y2="253.8906"/><polygon fill="#181818" points="69.5,243.8906,73.5,253.8906,77.5,243.8906,73.5,247.8906" style="stroke:#181818;stroke-width:1.0;"/><line style="stroke:#181818;stroke-width:1.0;" x1="73.5" x2="73.5" y1="288.9844" y2="308.9844"/><polygon fill="#181818" points="69.5,298.9844,73.5,308.9844,77.5,298.9844,73.5,302.9844" style="stroke:#181818;stroke-width:1.0;"/><line style="stroke:#181818;stroke-width:1.0;" x1="73.5" x2="73.5" y1="344.0781" y2="364.0781"/><polygon fill="#181818" points="69.5,354.0781,73.5,364.0781,77.5,354.0781,73.5,358.0781" style="stroke:#181818;stroke-width:1.0;"/><line style="stroke:#181818;stroke-width:1.0;" x1="73.5" x2="73.5" y1="399.1719" y2="419.1719"/><polygon fill="#181818" points="69.5,409.1719,73.5,419.1719,77.5,409.1719,73.5,413.1719" style="stroke:#181818;stroke-width:1.0;"/><!--MD5=[0cf899826e512b5f4ac7fa5d555cd0a4]
@startuml Activity diagram example

title "Online Shopping Process"

start
:Customer Login;
:View Products;
:Add to Cart;
:Checkout;
note right
This is an example of a note.
end note
:Payment;
:Order Confirmation;
stop

@enduml

PlantUML version 1.2022.7(Mon Aug 22 18:01:30 BST 2022)
(GPL source distribution)
Java Runtime: Java(TM) SE Runtime Environment
JVM: Java HotSpot(TM) 64-Bit Server VM
Default Encoding: Cp1252
Language: en
Country: US
--></g></svg>