<?xml version="1.0" encoding="UTF-8" standalone="no"?><svg xmlns="http://www.w3.org/2000/svg" xmlns:xlink="http://www.w3.org/1999/xlink" contentStyleType="text/css" height="399px" preserveAspectRatio="none" style="width:555px;height:399px;background:#FFFFFF;" version="1.1" viewBox="0 0 555 399" width="555px" zoomAndPan="magnify"><defs/><g><!--MD5=[7fd4401f5c5cb0e3d029c879cad30c04]
class Animal--><g id="elem_Animal"><rect codeLine="1" fill="#F1F1F1" height="136.0469" id="Animal" rx="2.5" ry="2.5" style="stroke:#181818;stroke-width:0.5;" width="141" x="228" y="7"/><ellipse cx="273.25" cy="23" fill="#ADD1B2" rx="11" ry="11" style="stroke:#181818;stroke-width:1.0;"/><path d="M276.0156,18.875 Q276.1719,18.6563 276.3594,18.5469 Q276.5469,18.4375 276.7656,18.4375 Q277.1406,18.4375 277.375,18.6953 Q277.6094,18.9531 277.6094,19.5625 L277.6094,21.0156 Q277.6094,21.625 277.375,21.8906 Q277.1406,22.1563 276.7656,22.1563 Q276.4219,22.1563 276.2188,21.9531 Q276.0156,21.7656 275.9063,21.25 Q275.8594,20.8906 275.6719,20.7031 Q275.3438,20.3281 274.7344,20.1094 Q274.125,19.8906 273.5,19.8906 Q272.7344,19.8906 272.1016,20.2188 Q271.4688,20.5469 270.9766,21.2969 Q270.4844,22.0469 270.4844,23.0781 L270.4844,24.1719 Q270.4844,25.4063 271.375,26.2266 Q272.2656,27.0469 273.8594,27.0469 Q274.7969,27.0469 275.4531,26.7969 Q275.8438,26.6406 276.2656,26.2031 Q276.5313,25.9375 276.6797,25.8594 Q276.8281,25.7813 277.0313,25.7813 Q277.3594,25.7813 277.6172,26.0391 Q277.875,26.2969 277.875,26.6406 Q277.875,26.9844 277.5313,27.3906 Q277.0313,27.9688 276.2344,28.2969 Q275.1563,28.75 273.8594,28.75 Q272.3438,28.75 271.1406,28.125 Q270.1563,27.625 269.4688,26.5547 Q268.7813,25.4844 268.7813,24.2031 L268.7813,23.0469 Q268.7813,21.7188 269.3984,20.5703 Q270.0156,19.4219 271.1094,18.8047 Q272.2031,18.1875 273.4375,18.1875 Q274.1719,18.1875 274.8203,18.3516 Q275.4688,18.5156 276.0156,18.875 Z " fill="#000000"/><text fill="#000000" font-family="sans-serif" font-size="14" lengthAdjust="spacing" textLength="42" x="293.75" y="28.7285">Animal</text><line style="stroke:#181818;stroke-width:0.5;" x1="229" x2="368" y1="39" y2="39"/><text fill="#000000" font-family="sans-serif" font-size="14" lengthAdjust="spacing" textLength="30" x="234" y="57.5332">int id</text><text fill="#000000" font-family="sans-serif" font-size="14" lengthAdjust="spacing" textLength="76" x="234" y="75.1426">String name</text><line style="stroke:#181818;stroke-width:0.5;" x1="229" x2="368" y1="82.2188" y2="82.2188"/><ellipse cx="239" cy="96.5234" fill="#84BE84" rx="3" ry="3" style="stroke:#038048;stroke-width:1.0;"/><text fill="#000000" font-family="sans-serif" font-size="14" lengthAdjust="spacing" textLength="60" x="248" y="100.752">int getId()</text><ellipse cx="239" cy="114.1328" fill="#84BE84" rx="3" ry="3" style="stroke:#038048;stroke-width:1.0;"/><text fill="#000000" font-family="sans-serif" font-size="14" lengthAdjust="spacing" textLength="107" x="248" y="118.3613">String getName()</text><ellipse cx="239" cy="131.7422" fill="#84BE84" rx="3" ry="3" style="stroke:#038048;stroke-width:1.0;"/><text fill="#000000" font-family="sans-serif" font-size="14" lengthAdjust="spacing" textLength="115" x="248" y="135.9707">void makeSound()</text></g><!--MD5=[454ed48f055567edc734f170f61b4daf]
class Dog--><g id="elem_Dog"><rect codeLine="10" fill="#F1F1F1" height="100.8281" id="Dog" rx="2.5" ry="2.5" style="stroke:#181818;stroke-width:0.5;" width="141" x="7" y="256"/><ellipse cx="60.25" cy="272" fill="#ADD1B2" rx="11" ry="11" style="stroke:#181818;stroke-width:1.0;"/><path d="M63.0156,267.875 Q63.1719,267.6563 63.3594,267.5469 Q63.5469,267.4375 63.7656,267.4375 Q64.1406,267.4375 64.375,267.6953 Q64.6094,267.9531 64.6094,268.5625 L64.6094,270.0156 Q64.6094,270.625 64.375,270.8906 Q64.1406,271.1563 63.7656,271.1563 Q63.4219,271.1563 63.2188,270.9531 Q63.0156,270.7656 62.9063,270.25 Q62.8594,269.8906 62.6719,269.7031 Q62.3438,269.3281 61.7344,269.1094 Q61.125,268.8906 60.5,268.8906 Q59.7344,268.8906 59.1016,269.2188 Q58.4688,269.5469 57.9766,270.2969 Q57.4844,271.0469 57.4844,272.0781 L57.4844,273.1719 Q57.4844,274.4063 58.375,275.2266 Q59.2656,276.0469 60.8594,276.0469 Q61.7969,276.0469 62.4531,275.7969 Q62.8438,275.6406 63.2656,275.2031 Q63.5313,274.9375 63.6797,274.8594 Q63.8281,274.7813 64.0313,274.7813 Q64.3594,274.7813 64.6172,275.0391 Q64.875,275.2969 64.875,275.6406 Q64.875,275.9844 64.5313,276.3906 Q64.0313,276.9688 63.2344,277.2969 Q62.1563,277.75 60.8594,277.75 Q59.3438,277.75 58.1406,277.125 Q57.1563,276.625 56.4688,275.5547 Q55.7813,274.4844 55.7813,273.2031 L55.7813,272.0469 Q55.7813,270.7188 56.3984,269.5703 Q57.0156,268.4219 58.1094,267.8047 Q59.2031,267.1875 60.4375,267.1875 Q61.1719,267.1875 61.8203,267.3516 Q62.4688,267.5156 63.0156,267.875 Z " fill="#000000"/><text fill="#000000" font-family="sans-serif" font-size="14" lengthAdjust="spacing" textLength="26" x="80.75" y="277.7285">Dog</text><line style="stroke:#181818;stroke-width:0.5;" x1="8" x2="147" y1="288" y2="288"/><text fill="#000000" font-family="sans-serif" font-size="14" lengthAdjust="spacing" textLength="78" x="13" y="306.5332">String breed</text><line style="stroke:#181818;stroke-width:0.5;" x1="8" x2="147" y1="313.6094" y2="313.6094"/><ellipse cx="18" cy="327.9141" fill="#84BE84" rx="3" ry="3" style="stroke:#038048;stroke-width:1.0;"/><text fill="#000000" font-family="sans-serif" font-size="14" lengthAdjust="spacing" textLength="109" x="27" y="332.1426">String getBreed()</text><ellipse cx="18" cy="345.5234" fill="#84BE84" rx="3" ry="3" style="stroke:#038048;stroke-width:1.0;"/><text fill="#000000" font-family="sans-serif" font-size="14" lengthAdjust="spacing" textLength="115" x="27" y="349.752">void makeSound()</text></g><!--MD5=[8d10b9619f233caeee54837354dd5717]
class Cat--><g id="elem_Cat"><rect codeLine="17" fill="#F1F1F1" height="100.8281" id="Cat" rx="2.5" ry="2.5" style="stroke:#181818;stroke-width:0.5;" width="153" x="183" y="256"/><ellipse cx="244.25" cy="272" fill="#ADD1B2" rx="11" ry="11" style="stroke:#181818;stroke-width:1.0;"/><path d="M247.0156,267.875 Q247.1719,267.6563 247.3594,267.5469 Q247.5469,267.4375 247.7656,267.4375 Q248.1406,267.4375 248.375,267.6953 Q248.6094,267.9531 248.6094,268.5625 L248.6094,270.0156 Q248.6094,270.625 248.375,270.8906 Q248.1406,271.1563 247.7656,271.1563 Q247.4219,271.1563 247.2188,270.9531 Q247.0156,270.7656 246.9063,270.25 Q246.8594,269.8906 246.6719,269.7031 Q246.3438,269.3281 245.7344,269.1094 Q245.125,268.8906 244.5,268.8906 Q243.7344,268.8906 243.1016,269.2188 Q242.4688,269.5469 241.9766,270.2969 Q241.4844,271.0469 241.4844,272.0781 L241.4844,273.1719 Q241.4844,274.4063 242.375,275.2266 Q243.2656,276.0469 244.8594,276.0469 Q245.7969,276.0469 246.4531,275.7969 Q246.8438,275.6406 247.2656,275.2031 Q247.5313,274.9375 247.6797,274.8594 Q247.8281,274.7813 248.0313,274.7813 Q248.3594,274.7813 248.6172,275.0391 Q248.875,275.2969 248.875,275.6406 Q248.875,275.9844 248.5313,276.3906 Q248.0313,276.9688 247.2344,277.2969 Q246.1563,277.75 244.8594,277.75 Q243.3438,277.75 242.1406,277.125 Q241.1563,276.625 240.4688,275.5547 Q239.7813,274.4844 239.7813,273.2031 L239.7813,272.0469 Q239.7813,270.7188 240.3984,269.5703 Q241.0156,268.4219 242.1094,267.8047 Q243.2031,267.1875 244.4375,267.1875 Q245.1719,267.1875 245.8203,267.3516 Q246.4688,267.5156 247.0156,267.875 Z " fill="#000000"/><text fill="#000000" font-family="sans-serif" font-size="14" lengthAdjust="spacing" textLength="22" x="264.75" y="277.7285">Cat</text><line style="stroke:#181818;stroke-width:0.5;" x1="184" x2="335" y1="288" y2="288"/><text fill="#000000" font-family="sans-serif" font-size="14" lengthAdjust="spacing" textLength="92" x="189" y="306.5332">String furColor</text><line style="stroke:#181818;stroke-width:0.5;" x1="184" x2="335" y1="313.6094" y2="313.6094"/><ellipse cx="194" cy="327.9141" fill="#84BE84" rx="3" ry="3" style="stroke:#038048;stroke-width:1.0;"/><text fill="#000000" font-family="sans-serif" font-size="14" lengthAdjust="spacing" textLength="127" x="203" y="332.1426">String getFurColor()</text><ellipse cx="194" cy="345.5234" fill="#84BE84" rx="3" ry="3" style="stroke:#038048;stroke-width:1.0;"/><text fill="#000000" font-family="sans-serif" font-size="14" lengthAdjust="spacing" textLength="115" x="203" y="349.752">void makeSound()</text></g><!--MD5=[08d6a551530ab71b272f9c2c40bfb385]
class Owner--><g id="elem_Owner"><rect codeLine="24" fill="#F1F1F1" height="171.2656" id="Owner" rx="2.5" ry="2.5" style="stroke:#181818;stroke-width:0.5;" width="177" x="371" y="221"/><ellipse cx="434.75" cy="237" fill="#ADD1B2" rx="11" ry="11" style="stroke:#181818;stroke-width:1.0;"/><path d="M437.5156,232.875 Q437.6719,232.6563 437.8594,232.5469 Q438.0469,232.4375 438.2656,232.4375 Q438.6406,232.4375 438.875,232.6953 Q439.1094,232.9531 439.1094,233.5625 L439.1094,235.0156 Q439.1094,235.625 438.875,235.8906 Q438.6406,236.1563 438.2656,236.1563 Q437.9219,236.1563 437.7188,235.9531 Q437.5156,235.7656 437.4063,235.25 Q437.3594,234.8906 437.1719,234.7031 Q436.8438,234.3281 436.2344,234.1094 Q435.625,233.8906 435,233.8906 Q434.2344,233.8906 433.6016,234.2188 Q432.9688,234.5469 432.4766,235.2969 Q431.9844,236.0469 431.9844,237.0781 L431.9844,238.1719 Q431.9844,239.4063 432.875,240.2266 Q433.7656,241.0469 435.3594,241.0469 Q436.2969,241.0469 436.9531,240.7969 Q437.3438,240.6406 437.7656,240.2031 Q438.0313,239.9375 438.1797,239.8594 Q438.3281,239.7813 438.5313,239.7813 Q438.8594,239.7813 439.1172,240.0391 Q439.375,240.2969 439.375,240.6406 Q439.375,240.9844 439.0313,241.3906 Q438.5313,241.9688 437.7344,242.2969 Q436.6563,242.75 435.3594,242.75 Q433.8438,242.75 432.6406,242.125 Q431.6563,241.625 430.9688,240.5547 Q430.2813,239.4844 430.2813,238.2031 L430.2813,237.0469 Q430.2813,235.7188 430.8984,234.5703 Q431.5156,233.4219 432.6094,232.8047 Q433.7031,232.1875 434.9375,232.1875 Q435.6719,232.1875 436.3203,232.3516 Q436.9688,232.5156 437.5156,232.875 Z " fill="#000000"/><text fill="#000000" font-family="sans-serif" font-size="14" lengthAdjust="spacing" textLength="41" x="455.25" y="242.7285">Owner</text><line style="stroke:#181818;stroke-width:0.5;" x1="372" x2="547" y1="253" y2="253"/><text fill="#000000" font-family="sans-serif" font-size="14" lengthAdjust="spacing" textLength="30" x="377" y="271.5332">int id</text><text fill="#000000" font-family="sans-serif" font-size="14" lengthAdjust="spacing" textLength="76" x="377" y="289.1426">String name</text><text fill="#000000" font-family="sans-serif" font-size="14" lengthAdjust="spacing" textLength="111" x="377" y="306.752">List&lt;Animal&gt; pets</text><line style="stroke:#181818;stroke-width:0.5;" x1="372" x2="547" y1="313.8281" y2="313.8281"/><ellipse cx="382" cy="328.1328" fill="#84BE84" rx="3" ry="3" style="stroke:#038048;stroke-width:1.0;"/><text fill="#000000" font-family="sans-serif" font-size="14" lengthAdjust="spacing" textLength="60" x="391" y="332.3613">int getId()</text><ellipse cx="382" cy="345.7422" fill="#84BE84" rx="3" ry="3" style="stroke:#038048;stroke-width:1.0;"/><text fill="#000000" font-family="sans-serif" font-size="14" lengthAdjust="spacing" textLength="107" x="391" y="349.9707">String getName()</text><ellipse cx="382" cy="363.3516" fill="#84BE84" rx="3" ry="3" style="stroke:#038048;stroke-width:1.0;"/><text fill="#000000" font-family="sans-serif" font-size="14" lengthAdjust="spacing" textLength="142" x="391" y="367.5801">List&lt;Animal&gt; getPets()</text><ellipse cx="382" cy="380.9609" fill="#84BE84" rx="3" ry="3" style="stroke:#038048;stroke-width:1.0;"/><text fill="#000000" font-family="sans-serif" font-size="14" lengthAdjust="spacing" textLength="151" x="391" y="385.1895">void addPet(Animal pet)</text></g><!--MD5=[5037e5108ae860e34ac250b7d2b84c09]
reverse link Animal to Dog--><g id="link_Animal_Dog"><path d="M219.54,158 C188.09,190.66 152.92,227.18 125.45,255.71 " fill="none" id="Animal-backto-Dog" style="stroke:#181818;stroke-width:1.0;"/><polygon fill="none" points="214.77,152.86,233.69,143.31,224.86,162.57,214.77,152.86" style="stroke:#181818;stroke-width:1.0;"/></g><!--MD5=[29afdbb58cca2b953b6b88505d3bed3f]
reverse link Animal to Cat--><g id="link_Animal_Cat"><path d="M283.66,163.33 C278.35,194.58 272.55,228.72 267.96,255.71 " fill="none" id="Animal-backto-Cat" style="stroke:#181818;stroke-width:1.0;"/><polygon fill="none" points="276.81,161.85,287.06,143.31,290.61,164.2,276.81,161.85" style="stroke:#181818;stroke-width:1.0;"/></g><!--MD5=[394bff228c9dad531d550c634041cc15]
reverse link Animal to Owner--><g id="link_Animal_Owner"><path codeLine="35" d="M348.35,153.97 C356.61,166.45 365.2,179.15 373.5,191 C380.35,200.77 387.65,210.91 395,220.92 " fill="none" id="Animal-backto-Owner" style="stroke:#181818;stroke-width:1.0;"/><polygon fill="#181818" points="341.19,143.09,341.1483,150.301,347.7885,153.1129,347.8302,145.902,341.19,143.09" style="stroke:#181818;stroke-width:1.0;"/><text fill="#000000" font-family="sans-serif" font-size="13" lengthAdjust="spacing" textLength="21" x="374.5" y="187.4951">has</text><text fill="#000000" font-family="sans-serif" font-size="13" lengthAdjust="spacing" textLength="7" x="338.2315" y="164.4476">1</text><text fill="#000000" font-family="sans-serif" font-size="13" lengthAdjust="spacing" textLength="20" x="368.3648" y="210.0845">0..*</text></g><!--MD5=[1c3d299bd9c7caaacaa91f4ca3f837f3]
reverse link Owner to Animal--><g id="link_Owner_Animal"><path codeLine="36" d="M421.85,208.81 C415.45,196.34 408.31,184.07 400.5,173 C391.41,160.12 380.42,147.58 369.08,136.01 " fill="none" id="Owner-backto-Animal" style="stroke:#181818;stroke-width:1.0;"/><polygon fill="none" points="427.75,220.8,428.6866,213.65,422.4469,210.0354,421.5102,217.1854,427.75,220.8" style="stroke:#181818;stroke-width:1.0;"/><text fill="#000000" font-family="sans-serif" font-size="13" lengthAdjust="spacing" textLength="30" x="411.5" y="187.4951">owns</text><text fill="#000000" font-family="sans-serif" font-size="13" lengthAdjust="spacing" textLength="7" x="417.7207" y="210.2465">1</text><text fill="#000000" font-family="sans-serif" font-size="13" lengthAdjust="spacing" textLength="20" x="377.0121" y="138.7383">0..*</text></g><!--MD5=[d5028c344dc83abc73246196884cfcd4]
@startuml
class Animal {
  int id
  String name

  +int getId()
  +String getName()
  +void makeSound()
}

class Dog extends Animal {
  String breed

  +String getBreed()
  +void makeSound()
}

class Cat extends Animal {
  String furColor

  +String getFurColor()
  +void makeSound()
}

class Owner {
  int id
  String name
  List<Animal> pets

  +int getId()
  +String getName()
  +List<Animal> getPets()
  +void addPet(Animal pet)
}

Animal "1" *- - "0..*" Owner : has
Owner "1" o- - "0..*" Animal : owns
@enduml

PlantUML version 1.2022.7(Mon Aug 22 18:01:30 BST 2022)
(GPL source distribution)
Java Runtime: Java(TM) SE Runtime Environment
JVM: Java HotSpot(TM) 64-Bit Server VM
Default Encoding: Cp1252
Language: en
Country: US
--></g></svg>