<?xml version="1.0" encoding="UTF-8" standalone="no"?><svg xmlns="http://www.w3.org/2000/svg" xmlns:xlink="http://www.w3.org/1999/xlink" contentStyleType="text/css" height="368px" preserveAspectRatio="none" style="width:662px;height:368px;background:#FFFFFF;" version="1.1" viewBox="0 0 662 368" width="662px" zoomAndPan="magnify"><defs/><g><line style="stroke:#181818;stroke-width:0.5;stroke-dasharray:5.0,5.0;" x1="26" x2="26" y1="37.6094" y2="361.125"/><line style="stroke:#181818;stroke-width:0.5;stroke-dasharray:5.0,5.0;" x1="223.5" x2="223.5" y1="37.6094" y2="361.125"/><line style="stroke:#181818;stroke-width:0.5;stroke-dasharray:5.0,5.0;" x1="343.5" x2="343.5" y1="37.6094" y2="361.125"/><line style="stroke:#181818;stroke-width:0.5;stroke-dasharray:5.0,5.0;" x1="469.5" x2="469.5" y1="37.6094" y2="361.125"/><line style="stroke:#181818;stroke-width:0.5;stroke-dasharray:5.0,5.0;" x1="596.5" x2="596.5" y1="37.6094" y2="361.125"/><rect fill="#E2E2F0" height="31.6094" rx="2.5" ry="2.5" style="stroke:#181818;stroke-width:0.5;" width="43" x="5" y="5"/><text fill="#000000" font-family="sans-serif" font-size="14" lengthAdjust="spacing" textLength="29" x="12" y="26.5332">User</text><rect fill="#E2E2F0" height="31.6094" rx="2.5" ry="2.5" style="stroke:#181818;stroke-width:0.5;" width="122" x="162.5" y="5"/><text fill="#000000" font-family="sans-serif" font-size="14" lengthAdjust="spacing" textLength="108" x="169.5" y="26.5332">CustomerService</text><rect fill="#E2E2F0" height="31.6094" rx="2.5" ry="2.5" style="stroke:#181818;stroke-width:0.5;" width="98" x="294.5" y="5"/><text fill="#000000" font-family="sans-serif" font-size="14" lengthAdjust="spacing" textLength="84" x="301.5" y="26.5332">OrderService</text><rect fill="#E2E2F0" height="31.6094" rx="2.5" ry="2.5" style="stroke:#181818;stroke-width:0.5;" width="116" x="411.5" y="5"/><text fill="#000000" font-family="sans-serif" font-size="14" lengthAdjust="spacing" textLength="102" x="418.5" y="26.5332">PaymentService</text><rect fill="#E2E2F0" height="31.6094" rx="2.5" ry="2.5" style="stroke:#181818;stroke-width:0.5;" width="119" x="537.5" y="5"/><text fill="#000000" font-family="sans-serif" font-size="14" lengthAdjust="spacing" textLength="105" x="544.5" y="26.5332">InventoryService</text><polygon fill="#181818" points="211.5,65.9609,221.5,69.9609,211.5,73.9609,215.5,69.9609" style="stroke:#181818;stroke-width:1.0;"/><line style="stroke:#181818;stroke-width:1.0;" x1="26.5" x2="217.5" y1="69.9609" y2="69.9609"/><text fill="#000000" font-family="sans-serif" font-size="13" lengthAdjust="spacing" textLength="173" x="33.5" y="65.1045">Request customer information</text><polygon fill="#181818" points="37.5,96.3125,27.5,100.3125,37.5,104.3125,33.5,100.3125" style="stroke:#181818;stroke-width:1.0;"/><line style="stroke:#181818;stroke-width:1.0;" x1="31.5" x2="222.5" y1="100.3125" y2="100.3125"/><text fill="#000000" font-family="sans-serif" font-size="13" lengthAdjust="spacing" textLength="155" x="43.5" y="95.4561">Send customer information</text><polygon fill="#181818" points="331.5,126.6641,341.5,130.6641,331.5,134.6641,335.5,130.6641" style="stroke:#181818;stroke-width:1.0;"/><line style="stroke:#181818;stroke-width:1.0;" x1="26.5" x2="337.5" y1="130.6641" y2="130.6641"/><text fill="#000000" font-family="sans-serif" font-size="13" lengthAdjust="spacing" textLength="131" x="33.5" y="125.8076">Request to place order</text><polygon fill="#181818" points="457.5,157.0156,467.5,161.0156,457.5,165.0156,461.5,161.0156" style="stroke:#181818;stroke-width:1.0;"/><line style="stroke:#181818;stroke-width:1.0;" x1="343.5" x2="463.5" y1="161.0156" y2="161.0156"/><text fill="#000000" font-family="sans-serif" font-size="13" lengthAdjust="spacing" textLength="102" x="350.5" y="156.1592">Request payment</text><polygon fill="#181818" points="37.5,187.3672,27.5,191.3672,37.5,195.3672,33.5,191.3672" style="stroke:#181818;stroke-width:1.0;"/><line style="stroke:#181818;stroke-width:1.0;" x1="31.5" x2="468.5" y1="191.3672" y2="191.3672"/><text fill="#000000" font-family="sans-serif" font-size="13" lengthAdjust="spacing" textLength="169" x="43.5" y="186.5107">Request payment information</text><polygon fill="#181818" points="457.5,217.7188,467.5,221.7188,457.5,225.7188,461.5,221.7188" style="stroke:#181818;stroke-width:1.0;"/><line style="stroke:#181818;stroke-width:1.0;" x1="26.5" x2="463.5" y1="221.7188" y2="221.7188"/><text fill="#000000" font-family="sans-serif" font-size="13" lengthAdjust="spacing" textLength="163" x="33.5" y="216.8623">Provide payment information</text><polygon fill="#181818" points="354.5,248.0703,344.5,252.0703,354.5,256.0703,350.5,252.0703" style="stroke:#181818;stroke-width:1.0;"/><line style="stroke:#181818;stroke-width:1.0;" x1="348.5" x2="468.5" y1="252.0703" y2="252.0703"/><text fill="#000000" font-family="sans-serif" font-size="13" lengthAdjust="spacing" textLength="98" x="360.5" y="247.2139">Confirm payment</text><polygon fill="#181818" points="585,278.4219,595,282.4219,585,286.4219,589,282.4219" style="stroke:#181818;stroke-width:1.0;"/><line style="stroke:#181818;stroke-width:1.0;" x1="343.5" x2="591" y1="282.4219" y2="282.4219"/><text fill="#000000" font-family="sans-serif" font-size="13" lengthAdjust="spacing" textLength="142" x="350.5" y="277.5654">Request inventory check</text><polygon fill="#181818" points="354.5,308.7734,344.5,312.7734,354.5,316.7734,350.5,312.7734" style="stroke:#181818;stroke-width:1.0;"/><line style="stroke:#181818;stroke-width:1.0;" x1="348.5" x2="596" y1="312.7734" y2="312.7734"/><text fill="#000000" font-family="sans-serif" font-size="13" lengthAdjust="spacing" textLength="162" x="360.5" y="307.917">Confirm inventory availability</text><polygon fill="#181818" points="37.5,339.125,27.5,343.125,37.5,347.125,33.5,343.125" style="stroke:#181818;stroke-width:1.0;"/><line style="stroke:#181818;stroke-width:1.0;" x1="31.5" x2="342.5" y1="343.125" y2="343.125"/><text fill="#000000" font-family="sans-serif" font-size="13" lengthAdjust="spacing" textLength="141" x="43.5" y="338.2686">Confirm order placement</text><!--MD5=[2ca76e71c447a6181e1bb14d54f932a0]
@startuml Sequence Diagram Example
hide footbox
participant User
participant CustomerService
participant OrderService
participant PaymentService
participant InventoryService

User -> CustomerService : Request customer information
CustomerService -> User : Send customer information
User -> OrderService : Request to place order
OrderService -> PaymentService : Request payment
PaymentService -> User : Request payment information
User -> PaymentService : Provide payment information
PaymentService -> OrderService : Confirm payment
OrderService -> InventoryService : Request inventory check
InventoryService -> OrderService : Confirm inventory availability
OrderService -> User : Confirm order placement
@enduml

PlantUML version 1.2022.7(Mon Aug 22 18:01:30 BST 2022)
(GPL source distribution)
Java Runtime: Java(TM) SE Runtime Environment
JVM: Java HotSpot(TM) 64-Bit Server VM
Default Encoding: Cp1252
Language: en
Country: US
--></g></svg>