<?xml version="1.0" encoding="UTF-8" standalone="no"?><svg xmlns="http://www.w3.org/2000/svg" xmlns:xlink="http://www.w3.org/1999/xlink" contentStyleType="text/css" height="1138px" preserveAspectRatio="none" style="width:569px;height:1138px;background:#FFFFFF;" version="1.1" viewBox="0 0 569 1138" width="569px" zoomAndPan="magnify"><defs/><g><path d="M19.5,7 L543,7 A12.5,12.5 0 0 1 555.5,19.5 L555.5,34.6094 L7,34.6094 L7,19.5 A12.5,12.5 0 0 1 19.5,7 " fill="#F1F1F1" style="stroke:#F1F1F1;stroke-width:1.0;"/><rect fill="none" height="1125.6094" rx="12.5" ry="12.5" style="stroke:#181818;stroke-width:0.5;" width="548.5" x="7" y="7"/><line style="stroke:#181818;stroke-width:0.5;" x1="7" x2="555.5" y1="34.6094" y2="34.6094"/><text fill="#000000" font-family="sans-serif" font-size="14" lengthAdjust="spacing" textLength="37" x="262.75" y="26.5332">Order</text><ellipse cx="373.5" cy="55.6094" fill="#222222" rx="10" ry="10" style="stroke:none;stroke-width:1.0;"/><g id="Order.NewOrder"><rect fill="#F1F1F1" height="50" rx="12.5" ry="12.5" style="stroke:#181818;stroke-width:0.5;" width="83" x="332" y="102.6094"/><line style="stroke:#181818;stroke-width:0.5;" x1="332" x2="415" y1="130.2188" y2="130.2188"/><text fill="#000000" font-family="sans-serif" font-size="14" lengthAdjust="spacing" textLength="63" x="342" y="122.1426">NewOrder</text></g><g id="Order.PaymentVerification"><rect fill="#F1F1F1" height="50" rx="12.5" ry="12.5" style="stroke:#181818;stroke-width:0.5;" width="145" x="301" y="206.6094"/><line style="stroke:#181818;stroke-width:0.5;" x1="301" x2="446" y1="234.2188" y2="234.2188"/><text fill="#000000" font-family="sans-serif" font-size="14" lengthAdjust="spacing" textLength="125" x="311" y="226.1426">PaymentVerification</text></g><g id="Order.Approved"><rect fill="#F1F1F1" height="50" rx="12.5" ry="12.5" style="stroke:#181818;stroke-width:0.5;" width="81" x="256" y="310.6094"/><line style="stroke:#181818;stroke-width:0.5;" x1="256" x2="337" y1="338.2188" y2="338.2188"/><text fill="#000000" font-family="sans-serif" font-size="14" lengthAdjust="spacing" textLength="61" x="266" y="330.1426">Approved</text></g><g id="Order.Declined"><rect fill="#F1F1F1" height="50" rx="12.5" ry="12.5" style="stroke:#181818;stroke-width:0.5;" width="75" x="414" y="378.6094"/><line style="stroke:#181818;stroke-width:0.5;" x1="414" x2="489" y1="406.2188" y2="406.2188"/><text fill="#000000" font-family="sans-serif" font-size="14" lengthAdjust="spacing" textLength="55" x="424" y="398.1426">Declined</text></g><g id="Order.AvailabilityCheck"><rect fill="#F1F1F1" height="50" rx="12.5" ry="12.5" style="stroke:#181818;stroke-width:0.5;" width="126" x="212.5" y="446.6094"/><line style="stroke:#181818;stroke-width:0.5;" x1="212.5" x2="338.5" y1="474.2188" y2="474.2188"/><text fill="#000000" font-family="sans-serif" font-size="14" lengthAdjust="spacing" textLength="106" x="222.5" y="466.1426">AvailabilityCheck</text></g><g id="Order.InStock"><rect fill="#F1F1F1" height="50" rx="12.5" ry="12.5" style="stroke:#181818;stroke-width:0.5;" width="66" x="99.5" y="550.6094"/><line style="stroke:#181818;stroke-width:0.5;" x1="99.5" x2="165.5" y1="578.2188" y2="578.2188"/><text fill="#000000" font-family="sans-serif" font-size="14" lengthAdjust="spacing" textLength="46" x="109.5" y="570.1426">InStock</text></g><g id="Order.OutOfStock"><rect fill="#F1F1F1" height="50" rx="12.5" ry="12.5" style="stroke:#181818;stroke-width:0.5;" width="93" x="295" y="618.6094"/><line style="stroke:#181818;stroke-width:0.5;" x1="295" x2="388" y1="646.2188" y2="646.2188"/><text fill="#000000" font-family="sans-serif" font-size="14" lengthAdjust="spacing" textLength="73" x="305" y="638.1426">OutOfStock</text></g><g id="Order.ShippingAddressVerification"><rect fill="#F1F1F1" height="50" rx="12.5" ry="12.5" style="stroke:#181818;stroke-width:0.5;" width="197" x="19" y="686.6094"/><line style="stroke:#181818;stroke-width:0.5;" x1="19" x2="216" y1="714.2188" y2="714.2188"/><text fill="#000000" font-family="sans-serif" font-size="14" lengthAdjust="spacing" textLength="177" x="29" y="706.1426">ShippingAddressVerification</text></g><g id="Order.Verified"><rect fill="#F1F1F1" height="50" rx="12.5" ry="12.5" style="stroke:#181818;stroke-width:0.5;" width="68" x="62.5" y="790.6094"/><line style="stroke:#181818;stroke-width:0.5;" x1="62.5" x2="130.5" y1="818.2188" y2="818.2188"/><text fill="#000000" font-family="sans-serif" font-size="14" lengthAdjust="spacing" textLength="48" x="72.5" y="810.1426">Verified</text></g><g id="Order.AddressDeclined"><rect fill="#F1F1F1" height="50" rx="12.5" ry="12.5" style="stroke:#181818;stroke-width:0.5;" width="127" x="159" y="790.6094"/><line style="stroke:#181818;stroke-width:0.5;" x1="159" x2="286" y1="818.2188" y2="818.2188"/><text fill="#000000" font-family="sans-serif" font-size="14" lengthAdjust="spacing" textLength="107" x="169" y="810.1426">AddressDeclined</text></g><g id="Order.ConfirmOrder"><rect fill="#F1F1F1" height="50" rx="12.5" ry="12.5" style="stroke:#181818;stroke-width:0.5;" width="106" x="105.5" y="894.6094"/><line style="stroke:#181818;stroke-width:0.5;" x1="105.5" x2="211.5" y1="922.2188" y2="922.2188"/><text fill="#000000" font-family="sans-serif" font-size="14" lengthAdjust="spacing" textLength="86" x="115.5" y="914.1426">ConfirmOrder</text></g><g id="Order.Shipped"><rect fill="#F1F1F1" height="50" rx="12.5" ry="12.5" style="stroke:#181818;stroke-width:0.5;" width="72" x="151.5" y="998.6094"/><line style="stroke:#181818;stroke-width:0.5;" x1="151.5" x2="223.5" y1="1026.2188" y2="1026.2188"/><text fill="#000000" font-family="sans-serif" font-size="14" lengthAdjust="spacing" textLength="52" x="161.5" y="1018.1426">Shipped</text></g><g id="Order.CancelOrder"><rect fill="#F1F1F1" height="50" rx="12.5" ry="12.5" style="stroke:#181818;stroke-width:0.5;" width="101" x="236" y="894.6094"/><line style="stroke:#181818;stroke-width:0.5;" x1="236" x2="337" y1="922.2188" y2="922.2188"/><text fill="#000000" font-family="sans-serif" font-size="14" lengthAdjust="spacing" textLength="81" x="246" y="914.1426">CancelOrder</text></g><ellipse cx="232.5" cy="1112.6094" fill="none" rx="10" ry="10" style="stroke:#222222;stroke-width:1.0;"/><ellipse cx="233" cy="1113.1094" fill="#222222" rx="6" ry="6" style="stroke:none;stroke-width:1.0;"/><!--MD5=[c0e1468d6052c4d749cbf90abaa9568b]
link *start*Order to NewOrder--><g id="link_*start*Order_NewOrder"><path d="M373.5,65.7594 C373.5,73.7994 373.5,85.9394 373.5,97.2594 " fill="none" id="*start*Order-to-NewOrder" style="stroke:#181818;stroke-width:1.0;"/><polygon fill="#181818" points="373.5,102.3894,377.5,93.3894,373.5,97.3894,369.5,93.3894,373.5,102.3894" style="stroke:#181818;stroke-width:1.0;"/></g><!--MD5=[41466bd15e6f6984e204a2377284e21d]
link NewOrder to PaymentVerification--><g id="link_NewOrder_PaymentVerification"><path d="M373.5,152.7794 C373.5,167.2794 373.5,185.8294 373.5,201.1794 " fill="none" id="NewOrder-to-PaymentVerification" style="stroke:#181818;stroke-width:1.0;"/><polygon fill="#181818" points="373.5,206.2594,377.5,197.2594,373.5,201.2594,369.5,197.2594,373.5,206.2594" style="stroke:#181818;stroke-width:1.0;"/><text fill="#000000" font-family="sans-serif" font-size="13" lengthAdjust="spacing" textLength="120" x="374.5" y="185.1045">Payment Verification</text></g><!--MD5=[2945df21d1399f164eaf11be114b8d84]
link PaymentVerification to Approved--><g id="link_PaymentVerification_Approved"><path d="M330.03,256.6994 C323.43,261.8994 317.24,267.8894 312.5,274.6094 C306.15,283.6194 302.32,295.0094 300.01,305.4294 " fill="none" id="PaymentVerification-to-Approved" style="stroke:#181818;stroke-width:1.0;"/><polygon fill="#181818" points="298.99,310.4594,304.6864,302.425,299.9761,305.5576,296.8435,300.8473,298.99,310.4594" style="stroke:#181818;stroke-width:1.0;"/><text fill="#000000" font-family="sans-serif" font-size="13" lengthAdjust="spacing" textLength="109" x="313.5" y="289.1045">Payment Approved</text></g><!--MD5=[75985a1eb8e19beda2e7442a6bc79a96]
link PaymentVerification to Declined--><g id="link_PaymentVerification_Declined"><path d="M408.34,256.6194 C414.11,261.9594 419.51,268.0094 423.5,274.6094 C441.81,304.9094 448.21,345.6694 450.41,372.9794 " fill="none" id="PaymentVerification-to-Declined" style="stroke:#181818;stroke-width:1.0;"/><polygon fill="#181818" points="450.79,378.2494,454.1123,368.9778,450.4196,373.2631,446.1343,369.5704,450.79,378.2494" style="stroke:#181818;stroke-width:1.0;"/><text fill="#000000" font-family="sans-serif" font-size="13" lengthAdjust="spacing" textLength="106" x="432.5" y="289.1045">Payment Declined</text></g><!--MD5=[dd00663861e45b2f0d07a5fc529ef828]
link Approved to AvailabilityCheck--><g id="link_Approved_AvailabilityCheck"><path d="M279.78,360.9994 C276.77,366.5594 274.1,372.5994 272.5,378.6094 C267.06,399.0794 268.06,423.0194 270.29,441.3394 " fill="none" id="Approved-to-AvailabilityCheck" style="stroke:#181818;stroke-width:1.0;"/><polygon fill="#181818" points="270.94,446.3494,273.7493,436.9097,270.297,441.3909,265.8158,437.9385,270.94,446.3494" style="stroke:#181818;stroke-width:1.0;"/><text fill="#000000" font-family="sans-serif" font-size="13" lengthAdjust="spacing" textLength="131" x="273.5" y="409.1045">Item Availability Check</text></g><!--MD5=[beb0db5ad64de75dec6972a93cff773a]
link AvailabilityCheck to InStock--><g id="link_AvailabilityCheck_InStock"><path d="M241.61,496.7794 C220,512.1994 191.97,532.1894 169.73,548.0494 " fill="none" id="AvailabilityCheck-to-InStock" style="stroke:#181818;stroke-width:1.0;"/><polygon fill="#181818" points="165.65,550.9594,175.3012,548.996,169.7225,548.0586,170.6599,542.4799,165.65,550.9594" style="stroke:#181818;stroke-width:1.0;"/><text fill="#000000" font-family="sans-serif" font-size="13" lengthAdjust="spacing" textLength="77" x="214.5" y="529.1045">Item In Stock</text></g><!--MD5=[ef1912edbd42145cdb734cdd1e6d1763]
link AvailabilityCheck to OutOfStock--><g id="link_AvailabilityCheck_OutOfStock"><path d="M288.24,496.7994 C291.1,502.5694 294.02,508.7594 296.5,514.6094 C310.55,547.7494 323.86,586.9394 332.31,613.1394 " fill="none" id="AvailabilityCheck-to-OutOfStock" style="stroke:#181818;stroke-width:1.0;"/><polygon fill="#181818" points="333.93,618.1994,334.985,608.4072,332.4004,613.4391,327.3685,610.8545,333.93,618.1994" style="stroke:#181818;stroke-width:1.0;"/><text fill="#000000" font-family="sans-serif" font-size="13" lengthAdjust="spacing" textLength="102" x="303.5" y="529.1045">Item Out of Stock</text></g><!--MD5=[224387d6fc3dd1f20d877296e3799970]
link InStock to ShippingAddressVerification--><g id="link_InStock_ShippingAddressVerification"><path d="M120.12,600.9394 C117.79,606.5994 115.71,612.6994 114.5,618.6094 C110.24,639.3594 111.2,663.2794 113.11,681.5294 " fill="none" id="InStock-to-ShippingAddressVerification" style="stroke:#181818;stroke-width:1.0;"/><polygon fill="#181818" points="113.67,686.5194,116.6428,677.1299,113.1131,681.5505,108.6925,678.0209,113.67,686.5194" style="stroke:#181818;stroke-width:1.0;"/><text fill="#000000" font-family="sans-serif" font-size="13" lengthAdjust="spacing" textLength="170" x="115.5" y="649.1045">Shipping Address Verification</text></g><!--MD5=[8e14fdb124097ed6ec2a2cb98554467b]
link ShippingAddressVerification to Verified--><g id="link_ShippingAddressVerification_Verified"><path d="M102.38,736.6894 C99.54,742.3694 96.99,748.5394 95.5,754.6094 C93.08,764.4294 92.64,775.4294 93.03,785.2994 " fill="none" id="ShippingAddressVerification-to-Verified" style="stroke:#181818;stroke-width:1.0;"/><polygon fill="#181818" points="93.3,790.3494,96.8325,781.1558,93.0432,785.356,88.843,781.5667,93.3,790.3494" style="stroke:#181818;stroke-width:1.0;"/><text fill="#000000" font-family="sans-serif" font-size="13" lengthAdjust="spacing" textLength="95" x="96.5" y="769.1045">Address Verified</text></g><!--MD5=[c620cfbab84c4fa0eb38b77aade41d7b]
link ShippingAddressVerification to AddressDeclined--><g id="link_ShippingAddressVerification_AddressDeclined"><path d="M170.04,736.6294 C178.17,741.8094 186.01,747.8094 192.5,754.6094 C200.87,763.3794 207.39,774.9294 212.18,785.5594 " fill="none" id="ShippingAddressVerification-to-AddressDeclined" style="stroke:#181818;stroke-width:1.0;"/><polygon fill="#181818" points="214.26,790.3594,214.3543,780.511,212.2732,785.7711,207.0131,783.6899,214.26,790.3594" style="stroke:#181818;stroke-width:1.0;"/><text fill="#000000" font-family="sans-serif" font-size="13" lengthAdjust="spacing" textLength="102" x="206.5" y="769.1045">Address Declined</text></g><!--MD5=[9232e347c4feb925f728c06814ad6192]
link Verified to ConfirmOrder--><g id="link_Verified_ConfirmOrder"><path d="M93.02,840.7094 C92.49,852.2194 93.59,865.8194 99.5,876.6094 C102.43,881.9494 106.36,886.7794 110.81,891.0894 " fill="none" id="Verified-to-ConfirmOrder" style="stroke:#181818;stroke-width:1.0;"/><polygon fill="#181818" points="114.66,894.5894,110.6826,885.5794,110.9571,891.2296,105.3069,891.5041,114.66,894.5894" style="stroke:#181818;stroke-width:1.0;"/><text fill="#000000" font-family="sans-serif" font-size="13" lengthAdjust="spacing" textLength="108" x="100.5" y="873.1045">Order Confirmation</text></g><!--MD5=[530ca9cff52be8eba110f029019c533a]
link ConfirmOrder to Shipped--><g id="link_ConfirmOrder_Shipped"><path d="M165.37,944.7794 C169.5,959.2794 174.77,977.8294 179.13,993.1794 " fill="none" id="ConfirmOrder-to-Shipped" style="stroke:#181818;stroke-width:1.0;"/><polygon fill="#181818" points="180.58,998.2594,181.9536,988.5068,179.2064,993.4518,174.2614,990.7045,180.58,998.2594" style="stroke:#181818;stroke-width:1.0;"/><text fill="#000000" font-family="sans-serif" font-size="13" lengthAdjust="spacing" textLength="83" x="176.5" y="977.1045">Order Shipped</text></g><!--MD5=[d1d2c1836e8cbd58f1e7bc0b1760e937]
link AddressDeclined to CancelOrder--><g id="link_AddressDeclined_CancelOrder"><path d="M222.52,840.7894 C223.5,852.3194 226.12,865.9094 232.5,876.6094 C235.59,881.7894 239.58,886.5694 243.98,890.8994 " fill="none" id="AddressDeclined-to-CancelOrder" style="stroke:#181818;stroke-width:1.0;"/><polygon fill="#181818" points="247.78,894.4294,243.9134,885.3713,244.1186,891.0244,238.4654,891.2295,247.78,894.4294" style="stroke:#181818;stroke-width:1.0;"/><text fill="#000000" font-family="sans-serif" font-size="13" lengthAdjust="spacing" textLength="93" x="233.5" y="873.1045">Order Cancelled</text></g><!--MD5=[0a0950b6b83832604098f8433faad283]
link OutOfStock to CancelOrder--><g id="link_OutOfStock_CancelOrder"><path d="M342.15,668.9194 C343.2,720.6694 343.71,839.9894 327.5,876.6094 C325.4,881.3594 322.5,885.8894 319.22,890.0894 " fill="none" id="OutOfStock-to-CancelOrder" style="stroke:#181818;stroke-width:1.0;"/><polygon fill="#181818" points="315.82,894.1794,324.653,889.8229,319.0195,890.3371,318.5053,884.7037,315.82,894.1794" style="stroke:#181818;stroke-width:1.0;"/><text fill="#000000" font-family="sans-serif" font-size="13" lengthAdjust="spacing" textLength="93" x="342.5" y="769.1045">Order Cancelled</text></g><!--MD5=[a42d2f6c99160429bef3c227404ec82f]
link Declined to CancelOrder--><g id="link_Declined_CancelOrder"><path d="M451.5,429.0194 C451.5,452.8794 451.5,490.2394 451.5,522.6094 C451.5,522.6094 451.5,522.6094 451.5,816.6094 C451.5,869.1894 390.12,895.5794 342.23,908.1594 " fill="none" id="Declined-to-CancelOrder" style="stroke:#181818;stroke-width:1.0;"/><polygon fill="#181818" points="337.35,909.4094,347.0607,911.0535,342.1939,908.1699,345.0775,903.3032,337.35,909.4094" style="stroke:#181818;stroke-width:1.0;"/><text fill="#000000" font-family="sans-serif" font-size="13" lengthAdjust="spacing" textLength="93" x="452.5" y="649.1045">Order Cancelled</text></g><!--MD5=[a3eb63f221b6ea5e0bcfaccbb3ad4bfe]
link CancelOrder to *end*Order--><g id="link_CancelOrder_*end*Order"><path d="M288.2,944.7594 C289.47,978.2494 287.82,1039.7494 263.5,1084.6094 C259.24,1092.4594 251.74,1099.0894 245.18,1103.8094 " fill="none" id="CancelOrder-to-*end*Order" style="stroke:#181818;stroke-width:1.0;"/><polygon fill="#181818" points="240.85,1106.7694,250.5396,1105.0053,244.9814,1103.9531,246.0336,1098.395,240.85,1106.7694" style="stroke:#181818;stroke-width:1.0;"/><text fill="#000000" font-family="sans-serif" font-size="13" lengthAdjust="spacing" textLength="54" x="287.5" y="1029.1045">Canceled</text></g><!--MD5=[bafbe50427b4fe59f4dc1796543000c6]
link Shipped to *end*Order--><g id="link_Shipped_*end*Order"><path d="M197.26,1048.6994 C202.05,1059.8394 208.14,1073.1194 214.5,1084.6094 C217.28,1089.6394 220.7,1094.9494 223.82,1099.5094 " fill="none" id="Shipped-to-*end*Order" style="stroke:#181818;stroke-width:1.0;"/><polygon fill="#181818" points="226.79,1103.7894,224.9489,1094.1141,223.941,1099.6805,218.3746,1098.6726,226.79,1103.7894" style="stroke:#181818;stroke-width:1.0;"/><text fill="#000000" font-family="sans-serif" font-size="13" lengthAdjust="spacing" textLength="47" x="215.5" y="1081.1045">Shipped</text></g><!--MD5=[f68af6f4bdb8684b4f03b9149288a628]
@startuml

state Order {
  [*] - -> NewOrder
  NewOrder - -> PaymentVerification : Payment Verification
  PaymentVerification - -> Approved : Payment Approved
  PaymentVerification - -> Declined : Payment Declined
  Approved - -> AvailabilityCheck : Item Availability Check
  AvailabilityCheck - -> InStock : Item In Stock
  AvailabilityCheck - -> OutOfStock : Item Out of Stock
  InStock - -> ShippingAddressVerification : Shipping Address Verification
  ShippingAddressVerification - -> Verified : Address Verified
  ShippingAddressVerification - -> AddressDeclined : Address Declined
  Verified - -> ConfirmOrder : Order Confirmation
  ConfirmOrder - -> Shipped : Order Shipped
  AddressDeclined - -> CancelOrder : Order Cancelled
  OutOfStock - -> CancelOrder :Order Cancelled
  Declined - -> CancelOrder : Order Cancelled
  CancelOrder - -> [*] : Canceled
  Shipped - -> [*] : Shipped
}

@enduml

PlantUML version 1.2022.7(Mon Aug 22 18:01:30 BST 2022)
(GPL source distribution)
Java Runtime: Java(TM) SE Runtime Environment
JVM: Java HotSpot(TM) 64-Bit Server VM
Default Encoding: Cp1252
Language: en
Country: US
--></g></svg>